<?xml version="1.0" encoding="UTF-8"?>
<svg width="24px" height="24px" viewBox="0 0 24 24" version="1.1" xmlns="http://www.w3.org/2000/svg" xmlns:xlink="http://www.w3.org/1999/xlink">
    <!-- Generator: Sketch 60 (88103) - https://sketch.com -->
    <title>SVG/ic-avatar-dark</title>
    <desc>Created with Sketch.</desc>
    <defs>
        <path d="M9,10 C11.4185638,10 13.6876753,10.9597532 15.363961,12.636039 C16.1989299,13.4710079 16.8638588,14.4626148 17.3167439,15.5547933 C17.5282895,16.064957 17.2862118,16.6500179 16.7760481,16.8615634 C16.2658845,17.073109 15.6808236,16.8310312 15.4692781,16.3208676 C15.1172769,15.4719811 14.5998735,14.7003786 13.9497475,14.0502525 C12.6448163,12.7453213 10.8826787,12 9,12 C7.1173213,12 5.35518372,12.7453213 4.05025253,14.0502525 C3.40012648,14.7003786 2.88272309,15.4719811 2.53072194,16.3208676 C2.31917637,16.8310312 1.73411548,17.073109 1.22395186,16.8615634 C0.713788243,16.6500179 0.471710483,16.064957 0.683256052,15.5547933 C1.13614122,14.4626148 1.80107009,13.4710079 2.63603897,12.636039 C4.31232472,10.9597532 6.58143618,10 9,10 Z M9,0 C11.4852814,0 13.5,2.01471863 13.5,4.5 C13.5,6.98528137 11.4852814,9 9,9 C6.51471863,9 4.5,6.98528137 4.5,4.5 C4.5,2.01471863 6.51471863,0 9,0 Z M9,2 C7.61928813,2 6.5,3.11928813 6.5,4.5 C6.5,5.88071187 7.61928813,7 9,7 C10.3807119,7 11.5,5.88071187 11.5,4.5 C11.5,3.11928813 10.3807119,2 9,2 Z" id="path-1"></path>
    </defs>
    <g id="Sign-Up-&amp;-Login" stroke="none" stroke-width="1" fill="none" fill-rule="evenodd">
        <g id="Assets" transform="translate(-43.000000, -35.000000)">
            <g transform="translate(41.000000, 35.000000)" id="Icon/User">
                <g transform="translate(2.000000, 0.000000)">
                    <g id="Rectangle" transform="translate(3.000000, 4.000000)">
                        <g>
                            <mask id="mask-2" fill="white">
                                <use xlink:href="#path-1"></use>
                            </mask>
                            <use id="Mask" fill="#979797" fill-rule="nonzero" xlink:href="#path-1"></use>
                            <rect fill="#444444" mask="url(#mask-2)" x="-3" y="-4" width="24" height="24"></rect>
                        </g>
                    </g>
                </g>
            </g>
        </g>
    </g>
</svg>