<?xml version="1.0" encoding="UTF-8"?>
<svg width="24px" height="24px" viewBox="0 0 24 24" version="1.1" xmlns="http://www.w3.org/2000/svg" xmlns:xlink="http://www.w3.org/1999/xlink">
    <!-- Generator: Sketch 60 (88103) - https://sketch.com -->
    <title>SVG/ic-bookmarked-accent</title>
    <desc>Created with Sketch.</desc>
    <defs>
        <path d="M13.9461927,0.0111642645 L13.7716788,0.00122987518 L2.27675408,0 C1.97431511,0 1.68036566,0.0601240287 1.40286948,0.178882399 C1.00810361,0.333810677 0.658149734,0.607162354 0.40229117,0.974644474 C0.143702685,1.34614759 0.00998360639,1.77109191 0.00998360639,2.22312566 L0.00998360639,16.3003549 C0.00998360639,16.752327 0.143616903,17.1770527 0.401967921,17.5485628 C0.658226478,17.9165508 1.00820981,18.1898554 1.43016948,18.3558844 C1.67997849,18.4633862 1.97419676,18.5234806 2.27675408,18.5234806 L2.47305608,18.5155305 C2.99098619,18.4732175 3.46327452,18.2627004 3.85855991,17.9007495 L7.999,13.919 L12.1225919,17.8841837 C12.5813459,18.3033247 13.1241499,18.5124642 13.7220599,18.5124642 C14.0316423,18.5124642 14.3229254,18.4596949 14.5907567,18.3469199 C14.9909817,18.189638 15.3410009,17.9162102 15.5968711,17.5484957 C15.8552702,17.1774041 15.9888686,16.7524393 15.9888686,16.3003167 L15.9888686,2.22327867 C15.9888686,1.77144041 15.8553066,1.34665211 15.5971133,0.975316333 C15.3409688,0.607414372 14.9911594,0.334290426 14.569461,0.168056862 C14.3883166,0.0900576786 14.1705032,0.033669926 13.9461927,0.0111642645 Z" id="path-1"></path>
    </defs>
    <g id="Assets" stroke="none" stroke-width="1" fill="none" fill-rule="evenodd">
        <g transform="translate(-43.000000, -624.000000)" id="Icon/Bookmark">
            <g transform="translate(41.000000, 35.000000)">
                <g transform="translate(2.000000, 589.000000)">
                    <g id="Rectangle" transform="translate(4.000000, 3.000000)">
                        <g>
                            <mask id="mask-2" fill="white">
                                <use xlink:href="#path-1"></use>
                            </mask>
                            <use id="Mask" fill="#979797" fill-rule="nonzero" xlink:href="#path-1"></use>
                            <rect fill="#D7181E" mask="url(#mask-2)" x="-4" y="-3" width="24" height="24"></rect>
                        </g>
                    </g>
                </g>
            </g>
        </g>
    </g>
</svg>