<?xml version="1.0" encoding="UTF-8"?>
<svg width="24px" height="24px" viewBox="0 0 24 24" version="1.1" xmlns="http://www.w3.org/2000/svg" xmlns:xlink="http://www.w3.org/1999/xlink">
    <!-- Generator: Sketch 60 (88103) - https://sketch.com -->
    <title>SVG/ic-bookmark-dark</title>
    <desc>Created with Sketch.</desc>
    <defs>
        <path d="M13.9461927,0.0111642645 L13.7716788,0.00122987518 L2.27675408,0 C1.97431511,0 1.68036566,0.0601240287 1.40286948,0.178882399 C1.00810361,0.333810677 0.658149734,0.607162354 0.40229117,0.974644474 C0.143702685,1.34614759 0.00998360639,1.77109191 0.00998360639,2.22312566 L0.00998360639,16.3003549 C0.00998360639,16.752327 0.143616903,17.1770527 0.401967921,17.5485628 C0.658226478,17.9165508 1.00820981,18.1898554 1.43016948,18.3558844 C1.67997849,18.4633862 1.97419676,18.5234806 2.27675408,18.5234806 L2.47305608,18.5155305 C2.99098619,18.4732175 3.46327452,18.2627004 3.85855991,17.9007495 L7.999,13.919 L12.1225919,17.8841837 C12.5813459,18.3033247 13.1241499,18.5124642 13.7220599,18.5124642 C14.0316423,18.5124642 14.3229254,18.4596949 14.5907567,18.3469199 C14.9909817,18.189638 15.3410009,17.9162102 15.5968711,17.5484957 C15.8552702,17.1774041 15.9888686,16.7524393 15.9888686,16.3003167 L15.9888686,2.22327867 C15.9888686,1.77144041 15.8553066,1.34665211 15.5971133,0.975316333 C15.3409688,0.607414372 14.9911594,0.334290426 14.569461,0.168056862 C14.3883166,0.0900576786 14.1705032,0.033669926 13.9461927,0.0111642645 Z M2.27675408,2 L13.713,2 L13.7967807,2.00493876 C13.7822647,2.00412035 13.7799572,2.00499272 13.7839843,2.00722791 L13.8091959,2.01769401 C13.8948104,2.05189436 13.9273565,2.07730569 13.9553938,2.11757582 C13.9805431,2.15374607 13.9888686,2.18022502 13.9888686,2.22327867 L13.9888686,16.3003167 C13.9888686,16.343457 13.98064,16.3696316 13.9553903,16.4058931 C13.9271312,16.4465045 13.8947135,16.4718286 13.8363388,16.494812 C13.8061721,16.5072159 13.7772016,16.5124642 13.7220599,16.5124642 C13.6215243,16.5124642 13.5599649,16.4887457 13.4898054,16.4247145 L8.69256621,11.8116028 C8.30545996,11.4393923 7.69348229,11.4393885 7.30637143,11.8115942 L2.49014201,16.442381 C2.42801326,16.4988679 2.3661034,16.5234806 2.27675408,16.5234806 C2.24434518,16.5234806 2.2181036,16.5181207 2.19009734,16.506123 C2.10408798,16.4718013 2.07166936,16.4464854 2.04359297,16.4061676 C2.01828869,16.3697796 2.00998361,16.3433836 2.00998361,16.3003549 L2.00998361,2.22312566 C2.00998361,2.18020651 2.01826344,2.15389412 2.04371545,2.11732829 C2.07174608,2.07706874 2.10419414,2.05172331 2.16259268,2.02873586 C2.21829829,2.00536513 2.24452867,2 2.27675408,2 Z" id="path-1"></path>
    </defs>
    <g id="Assets" stroke="none" stroke-width="1" fill="none" fill-rule="evenodd">
        <g transform="translate(-43.000000, -578.000000)" id="Icon/Bookmark">
            <g transform="translate(41.000000, 35.000000)">
                <g transform="translate(2.000000, 543.000000)">
                    <g id="Rectangle" transform="translate(4.000000, 3.000000)">
                        <g>
                            <mask id="mask-2" fill="white">
                                <use xlink:href="#path-1"></use>
                            </mask>
                            <use id="Mask" fill="#979797" fill-rule="nonzero" xlink:href="#path-1"></use>
                            <rect fill="#444444" mask="url(#mask-2)" x="-4" y="-3" width="24" height="24"></rect>
                        </g>
                    </g>
                </g>
            </g>
        </g>
    </g>
</svg>