<?xml version="1.0" encoding="UTF-8"?>
<svg width="32px" height="32px" viewBox="0 0 32 32" version="1.1" xmlns="http://www.w3.org/2000/svg" xmlns:xlink="http://www.w3.org/1999/xlink">
    <!-- Generator: Sketch 60 (88103) - https://sketch.com -->
    <title>SVG/ic-camera-grey</title>
    <desc>Created with Sketch.</desc>
    <defs>
        <path d="M16.044714,2.66666667 C16.5109751,2.66666667 16.9661446,2.82797675 17.4104074,3.15035836 C17.7807805,3.41912897 18.0546802,3.73040855 18.2324541,4.08416949 L18.3275862,4.30152359 C18.4866307,4.4571078 18.5996575,4.76859994 18.6666667,5.236 C18.7336758,5.70340006 18.7336758,6.18028895 18.6666667,6.66666667 C18.6666667,8.07248239 19.7545037,7.89088683 21.1343169,7.99268568 L21.3333333,8 L24.2550828,8.0001271 C24.8438199,8.00109193 25.3212101,8.47810365 25.3226419,9.06683981 L25.3333333,21.8461061 C25.3333333,22.8088139 25.0034058,23.6306794 24.3437821,24.3115597 C23.7499127,24.9246096 23.0459126,25.2618063 22.2312763,25.3231152 L21.9556325,25.3333333 L3.37779317,25.3333333 C2.44527103,25.3333333 1.64931361,24.9927262 0.989504982,24.3115597 C0.395801993,23.6987674 0.0692653487,22.9717771 0.00989504982,22.130693 L0,21.8461061 L0,9.64107335 C0,8.67841334 0.329834994,7.8566432 0.989504982,7.17557209 C1.58333275,6.56265103 2.2874036,6.22546716 3.10212183,6.1641596 L3.37779317,6.15394158 L6.33336798,6.15394158 L7.00625539,4.30152359 C7.17341431,3.85662075 7.47898654,3.4728831 7.92324936,3.15035836 C8.30404607,2.87403126 8.69292377,2.71604244 9.08985335,2.6765421 L9.28898899,2.66666667 L16.044714,2.66666667 Z M12.666736,9.64135962 C11.0393281,9.64135962 9.64733852,10.2383644 8.49067462,11.4326124 C7.33405694,12.6268605 6.75558634,14.06367 6.75558634,15.7439476 C6.75558634,17.4237003 7.33387208,18.860987 8.49067462,20.0549965 C9.64747716,21.2491968 11.0392819,21.8464401 12.666736,21.8464401 C14.29419,21.8464401 15.6860872,21.2491968 16.8427973,20.0549965 C17.9995998,18.8608438 18.5779318,17.4237003 18.5779318,15.7439476 C18.5779318,14.06367 17.9995536,12.6267173 16.8427973,11.4326124 C15.6860872,10.2385075 14.2941438,9.64135962 12.666736,9.64135962 Z M12.666736,11.8205963 C13.7134086,11.8205963 14.6085892,12.204334 15.3518618,12.9717615 C16.0951805,13.7391891 16.4668861,14.6630603 16.4668861,15.7439476 C16.4668861,16.8245009 16.0951805,17.7484675 15.3518618,18.5158473 C14.608543,19.2830841 13.7134086,19.666774 12.666736,19.666774 C11.6198784,19.666774 10.7248827,19.2830841 9.98156391,18.5158473 C9.23824515,17.7484675 8.86658576,16.8244532 8.86658576,15.7439476 C8.86658576,14.6630126 9.23824515,13.7391414 9.98156391,12.9717615 C10.7248827,12.2042863 11.6199246,11.8205963 12.666736,11.8205963 Z M23.3333333,0 C23.7015232,8.8817842e-16 24,0.298476833 24,0.666666667 L23.999,2.666 L26,2.66666667 C26.3681898,2.66666667 26.6666667,2.9651435 26.6666667,3.33333333 C26.6666667,3.70152317 26.3681898,4 26,4 L23.999,3.999 L24,6 C24,6.36818983 23.7015232,6.66666667 23.3333333,6.66666667 C22.9651435,6.66666667 22.6666667,6.36818983 22.6666667,6 L22.666,3.999 L20.6666667,4 C20.2984768,4 20,3.70152317 20,3.33333333 C20,2.9651435 20.2984768,2.66666667 20.6666667,2.66666667 L22.666,2.666 L22.6666667,0.666666667 C22.6666667,0.298476833 22.9651435,8.8817842e-16 23.3333333,0 Z" id="path-1"></path>
    </defs>
    <g id="Sign-Up-&amp;-Login" stroke="none" stroke-width="1" fill="none" fill-rule="evenodd">
        <g id="Assets" transform="translate(-259.000000, -183.000000)">
            <g transform="translate(41.000000, 35.000000)" id="Icon/Add-Picture">
                <g transform="translate(218.000000, 148.000000)">
                    <g id="Rectangle" transform="translate(2.666667, 2.666667)">
                        <mask id="mask-2" fill="white">
                            <use xlink:href="#path-1"></use>
                        </mask>
                        <use id="Mask" fill="#000000" fill-rule="nonzero" xlink:href="#path-1"></use>
                        <rect fill="#ABABAB" mask="url(#mask-2)" x="-2.66666667" y="-2.66666667" width="32" height="32"></rect>
                    </g>
                </g>
            </g>
        </g>
    </g>
</svg>