<?xml version="1.0" encoding="UTF-8"?>
<svg width="24px" height="24px" viewBox="0 0 24 24" version="1.1" xmlns="http://www.w3.org/2000/svg" xmlns:xlink="http://www.w3.org/1999/xlink">
    <!-- Generator: Sketch 60 (88103) - https://sketch.com -->
    <title>SVG/ic-key-dark</title>
    <desc>Created with Sketch.</desc>
    <defs>
        <path d="M10.1590974,0.912695633 C11.0321405,0.0435279888 12.3399865,-0.233808578 13.4909191,0.206186784 C14.539274,0.606992434 16.0557129,1.35030757 17.3266059,2.61563124 C18.6020301,3.88533103 19.3670269,5.4184185 19.7842126,6.48095592 C20.2382341,7.63738454 19.9625712,8.95111903 19.0819109,9.82786674 L19.0819109,9.82786674 L15.9770023,12.919009 C15.0758342,13.8161526 13.732754,14.0794621 12.5553372,13.5895321 C11.9918239,13.3550971 11.4455763,13.0763149 10.9318284,12.7609217 C10.5640956,12.5351608 10.4489789,12.053944 10.6746811,11.6861155 C10.9003833,11.318287 11.381475,11.2031013 11.7491687,11.4288622 C12.1936981,11.7017836 12.6668601,11.9432516 13.1554127,12.1465067 C13.747793,12.3929369 14.4226339,12.2613408 14.8747804,11.8112647 L14.8747804,11.8112647 L17.979689,8.72008337 C18.4186325,8.28309659 18.5560928,7.62843694 18.3298829,7.05219579 C17.9673844,6.12891274 17.3078169,4.80189361 16.2244231,3.72333646 C15.1476308,2.65126536 13.8402926,2.01289894 12.9331871,1.66609147 C12.3555724,1.44533188 11.6994033,1.58439089 11.2613973,2.02040086 L11.2613973,2.02040086 L8.19355885,5.07465869 C7.7403186,5.52590693 7.60899103,6.21862319 7.86676337,6.79849808 C8.086489,7.29288236 8.33519887,7.76987937 8.60593991,8.21624355 C8.7926188,8.52405667 8.74492369,8.91958753 8.49039353,9.1741839 L8.49039353,9.1741839 L1.56249335,16.1038471 L1.56249335,18.4371002 L3.43748536,18.4371002 L3.43748536,17.0304904 C3.43748536,16.5988956 3.78724949,16.2490405 4.21873203,16.2490405 L4.21873203,16.2490405 L5.62497604,16.2490014 L5.62497604,14.8424307 C5.62497604,14.4108359 5.97474018,14.0609808 6.40622272,14.0609808 L6.40622272,14.0609808 L8.5937134,14.0609808 C9.02519594,14.0609808 9.37496007,14.4108359 9.37496007,14.8424307 C9.37496007,15.2740255 9.02519594,15.6238806 8.5937134,15.6238806 L8.5937134,15.6238806 L7.18746939,15.6238806 L7.18746939,17.0304513 C7.18746939,17.4620461 6.83770525,17.8119012 6.40622272,17.8119012 L6.40622272,17.8119012 L4.9999787,17.8119403 L4.9999787,19.2185501 C4.9999787,19.6501449 4.65021457,20 4.21873203,20 L4.21873203,20 L0.781246673,20 C0.349764135,20 -5.32907052e-15,19.6501449 -5.32907052e-15,19.2185501 L-5.32907052e-15,19.2185501 L-5.32907052e-15,15.7801706 C-5.32907052e-15,15.572891 0.082304337,15.3741292 0.22882715,15.2275683 L0.22882715,15.2275683 L6.96219691,8.49248609 C6.77508833,8.15013289 6.59997189,7.79578444 6.43895695,7.43350427 C5.91970135,6.26543204 6.18180961,4.87234131 7.0912198,3.96699254 L7.0912198,3.96699254 Z M14.2186894,4.21963529 C14.9090424,4.21963529 15.4686841,4.77942255 15.4686841,5.46995512 C15.4686841,6.16048769 14.9090424,6.72027495 14.2186894,6.72027495 C13.5283364,6.72027495 12.9686948,6.16048769 12.9686948,5.46995512 C12.9686948,4.77942255 13.5283364,4.21963529 14.2186894,4.21963529 Z" id="path-1"></path>
    </defs>
    <g id="Sign-Up-&amp;-Login" stroke="none" stroke-width="1" fill="none" fill-rule="evenodd">
        <g id="Assets" transform="translate(-43.000000, -138.000000)">
            <g transform="translate(41.000000, 35.000000)" id="Icon/Password">
                <g transform="translate(2.000000, 103.000000)">
                    <g id="Rectangle" transform="translate(2.000000, 2.000000)">
                        <mask id="mask-2" fill="white">
                            <use xlink:href="#path-1"></use>
                        </mask>
                        <use id="Mask" fill="#000000" fill-rule="nonzero" xlink:href="#path-1"></use>
                        <rect fill="#444444" mask="url(#mask-2)" x="-2" y="-2" width="24" height="24"></rect>
                    </g>
                </g>
            </g>
        </g>
    </g>
</svg>