<?xml version="1.0" encoding="UTF-8"?>
<svg width="24px" height="24px" viewBox="0 0 24 24" version="1.1" xmlns="http://www.w3.org/2000/svg" xmlns:xlink="http://www.w3.org/1999/xlink">
    <!-- Generator: Sketch 60 (88103) - https://sketch.com -->
    <title>SVG/ic-location-grey</title>
    <desc>Created with Sketch.</desc>
    <defs>
        <path d="M7,0.400000095 C10.6456832,0.400000095 13.5999999,3.3958178 13.5999999,7.07024837 C13.5999999,8.99188433 12.6510789,11.1679644 11.075011,13.5601048 C10.5441635,14.3658199 9.97378537,15.1430724 9.39725055,15.8690958 C9.19007786,16.1299859 9.0030028,16.3583035 8.84324526,16.5483893 L8.84324526,16.5483893 L8.53293498,16.9091786 C7.71766798,17.8300092 6.28283208,17.8305284 5.46714519,16.9092691 C5.35237929,16.7796627 5.20490714,16.6076095 5.03193367,16.398752 L5.03193367,16.398752 L4.60274945,15.8690958 C4.02621463,15.1430724 3.45583645,14.3658199 2.92498903,13.5601048 C1.34892113,11.1679644 0.400000095,8.99188433 0.400000095,7.07024837 C0.400000095,3.39580967 3.35429775,0.400000095 7,0.400000095 Z M7,2 C4.24298511,2 2,4.27451058 2,7.07024837 C2,10.0230977 5.24093087,14.1522075 6.32374901,15.4492752 L6.32374901,15.4492752 L6.66501642,15.8485598 C6.84395476,16.0506577 7.15636881,16.0503023 7.33498358,15.8485598 C7.52548982,15.633419 12,10.5398463 12,7.07024837 C12,4.27451058 9.75698793,2 7,2 Z M6.99999724,3.44215185 C8.99149497,3.44215185 10.5999864,5.0732696 10.5999864,7.07027291 C10.5999864,9.06727729 8.99149367,10.6983722 6.99999724,10.6983722 C5.00848407,10.6983722 3.39998661,9.06726045 3.39998661,7.07025117 C3.39998661,5.0732457 5.0085021,3.44215185 6.99999724,3.44215185 Z M6.99999724,5.04215175 C5.8971958,5.04215175 4.99998652,5.95193995 4.99998652,7.07025117 C4.99998652,8.18856239 5.89717436,9.09837232 6.99999724,9.09837232 C8.10279867,9.09837232 8.99998652,8.18858412 8.99998652,7.07027291 C8.99998652,5.95196169 8.10279867,5.04215175 6.99999724,5.04215175 Z" id="path-1"></path>
    </defs>
    <g id="Sign-Up-&amp;-Login" stroke="none" stroke-width="1" fill="none" fill-rule="evenodd">
        <g id="Assets" transform="translate(-43.000000, -239.000000)">
            <g transform="translate(41.000000, 35.000000)" id="Icon/Lcoation">
                <g transform="translate(2.000000, 204.000000)">
                    <g id="Rectangle" transform="translate(5.000000, 3.000000)">
                        <mask id="mask-2" fill="white">
                            <use xlink:href="#path-1"></use>
                        </mask>
                        <use id="Mask" fill="#979797" fill-rule="nonzero" xlink:href="#path-1"></use>
                        <rect fill="#ABABAB" mask="url(#mask-2)" x="-5" y="-3" width="24" height="24"></rect>
                    </g>
                </g>
            </g>
        </g>
    </g>
</svg>