<?xml version="1.0" encoding="UTF-8"?>
<svg width="24px" height="24px" viewBox="0 0 24 24" version="1.1" xmlns="http://www.w3.org/2000/svg" xmlns:xlink="http://www.w3.org/1999/xlink">
    <!-- Generator: Sketch 60 (88103) - https://sketch.com -->
    <title>SVG/ic-mobile-dark</title>
    <desc>Created with Sketch.</desc>
    <defs>
        <path d="M13,0 C14.0543618,0 14.9181651,0.815877791 14.9945143,1.85073766 L15,2 L15,18 C15,19.0543618 14.1841222,19.9181651 13.1492623,19.9945143 L13,20 L2,20 C0.945638205,20 0.0818348781,19.1841222 0.00548573643,18.1492623 L0,18 L0,2 C0,0.945638205 0.815877791,0.0818348781 1.85073766,0.00548573643 L2,0 L13,0 Z M7.5,16 C6.67157288,16 6,16.6715729 6,17.5 C6,18.3284271 6.67157288,19 7.5,19 C8.32842712,19 9,18.3284271 9,17.5 C9,16.6715729 8.32842712,16 7.5,16 Z M13,2 L2,2 L2,15 L13,15 L13,2 Z" id="path-1"></path>
    </defs>
    <g id="Sign-Up-&amp;-Login" stroke="none" stroke-width="1" fill="none" fill-rule="evenodd">
        <g id="Assets" transform="translate(-43.000000, -87.000000)">
            <g transform="translate(41.000000, 35.000000)" id="Icon/Mobile">
                <g transform="translate(2.000000, 52.000000)">
                    <g id="Rectangle" transform="translate(5.000000, 2.000000)">
                        <mask id="mask-2" fill="white">
                            <use xlink:href="#path-1"></use>
                        </mask>
                        <use id="Mask" fill="#979797" fill-rule="nonzero" xlink:href="#path-1"></use>
                        <rect fill="#444444" mask="url(#mask-2)" x="-5" y="-2" width="24" height="24"></rect>
                    </g>
                </g>
            </g>
        </g>
    </g>
</svg>