<?xml version="1.0" encoding="UTF-8"?>
<svg width="24px" height="24px" viewBox="0 0 24 24" version="1.1" xmlns="http://www.w3.org/2000/svg" xmlns:xlink="http://www.w3.org/1999/xlink">
    <!-- Generator: Sketch 60 (88103) - https://sketch.com -->
    <title>SVG/ic-request-home-in-dark</title>
    <desc>Created with Sketch.</desc>
    <defs>
        <path d="M9.46805749,3.2134296 C9.86061146,2.94089285 10.4002071,2.98298893 10.7456679,3.32944604 L10.7456679,3.32944604 L13.0153949,5.60571898 L13.0984478,5.700046 C13.4029075,6.09277602 13.3743612,6.65996656 13.0133585,7.01993108 L13.0133585,7.01993108 L12.9190315,7.10298394 C12.5263015,7.40744365 11.959111,7.37889737 11.5991465,7.01789471 L11.5991465,7.01789471 L9.99707755,5.409 L3.52407755,11.163 L3.57363183,11.1912219 C3.85251847,11.3686685 4.03754365,11.6804937 4.03754365,12.0355315 L4.03754365,12.0355315 L4.03807755,19.021 L7.28807755,18.974 L7.28754365,15.0355315 L7.29427138,14.9189128 C7.35203649,14.4215741 7.77470781,14.0355315 8.28754365,14.0355315 L8.28754365,14.0355315 L11.7875436,14.0355315 L11.9041648,14.0422616 C12.4015035,14.1000267 12.7875436,14.5226981 12.7875436,15.0355315 L12.7875436,15.0355315 L12.7880776,18.974 L16.0380776,19.021 L16.0375436,12.0355315 L16.0442714,11.9189128 C16.1020365,11.4215741 16.5247078,11.0355315 17.0375436,11.0355315 C17.5898284,11.0355315 18.0375436,11.4832492 18.0375436,12.0355315 L18.0375436,12.0355315 L18.0375436,20.0355315 L18.031562,20.1455716 C17.9762248,20.651399 17.5438401,21.0429063 17.0231873,21.0355315 L17.0231873,21.0355315 L11.7731873,20.9600521 L11.6578202,20.9517961 C11.1660809,20.8880635 10.7875436,20.4677924 10.7875436,19.9601551 L10.7875436,19.9601551 L10.7880776,16.035 L9.28807755,16.035 L9.28754365,19.9601551 L9.28094482,20.0756288 C9.22427835,20.5682324 8.80948503,20.9527642 8.30190003,20.9600521 L8.30190003,20.9600521 L3.05190003,21.0355315 L2.94178785,21.0310296 C2.43521811,20.9829599 2.03754365,20.5562404 2.03754365,20.0355315 L2.03754365,20.0355315 L2.03807755,13.035 L1.03754365,13.0355315 L0.925188342,13.0297348 C0.0839613433,12.9417368 -0.28544019,11.8735646 0.373179809,11.2881246 L0.373179809,11.2881246 L9.37317981,3.28812459 Z M18.5355339,0.125631329 C19.0878187,0.125631329 19.5355339,0.573346579 19.5355339,1.12563133 L19.5355339,1.12563133 L19.5355339,6.65663133 L20.6568542,5.53553391 L20.7440751,5.45782754 C21.1365927,5.14700209 21.7084381,5.17290421 22.0710678,5.53553391 C22.4615921,5.9260582 22.4615921,6.55922318 22.0710678,6.94974747 L22.0710678,6.94974747 L19.2426407,9.77817459 L19.1554199,9.85588096 C19.1525051,9.85818907 19.1495805,9.86047861 19.1466462,9.86274958 C19.1190649,9.88398521 19.0905611,9.90375111 19.0610355,9.92202326 C19.0476565,9.9304029 19.0341235,9.9383355 19.0204504,9.94592307 C19.0014528,9.9564009 18.9817042,9.96653906 18.9615882,9.97602625 C18.9468362,9.9830048 18.9322439,9.98944129 18.9175361,9.99551196 C18.8946642,10.00498 18.8711657,10.0136886 18.8472703,10.0215211 C18.8360433,10.0251402 18.8243963,10.0287195 18.8127001,10.0320813 C18.7855345,10.0399708 18.7581712,10.0466072 18.7303946,10.0520933 C18.71867,10.0543264 18.7066643,10.0564757 18.6946302,10.0584046 C18.6427528,10.06677 18.5896452,10.0710678 18.5355339,10.0710678 L18.6266008,10.0669379 C18.6075325,10.0686713 18.588424,10.069859 18.5693006,10.0705011 L18.5355339,10.0710678 C18.5244073,10.0710678 18.5133231,10.0708861 18.5022842,10.0705255 C18.4867468,10.0700136 18.4706526,10.0691033 18.4545838,10.0678061 C18.4315726,10.0659914 18.4089515,10.0633907 18.3865727,10.0600485 C18.3717943,10.0577607 18.3571411,10.0552304 18.3425393,10.0523725 C18.3145426,10.0469894 18.286853,10.0403187 18.2596383,10.0325237 C18.2517965,10.0302076 18.2434609,10.0277104 18.2351526,10.0251022 C18.2087855,10.0168605 18.183338,10.0076738 18.1583933,9.99750878 C18.1432394,9.99134221 18.1282106,9.98479599 18.1133174,9.97786299 C18.0953996,9.96947141 18.0776703,9.96054688 18.0602525,9.95112035 C18.0441344,9.94249404 18.0279564,9.9331604 18.0119946,9.92333684 C17.9947618,9.91262396 17.9779021,9.90152416 17.9614083,9.88993867 C17.9147505,9.85725321 17.8702006,9.81994811 17.8284271,9.77817459 L17.9129758,9.85369047 C17.8833795,9.83011607 17.8551506,9.80489807 17.8284271,9.77817459 L15,6.94974747 L14.9222936,6.86252666 C14.6114682,6.470009 14.6373703,5.89816361 15,5.53553391 L15,5.53553391 L15.0872208,5.45782754 C15.4797385,5.14700209 16.0515839,5.17290421 16.4142136,5.53553391 L16.4142136,5.53553391 L17.5355339,6.65663133 L17.5355339,1.12563133 L17.5422616,1.0090102 C17.6000267,0.511671519 18.0226981,0.125631329 18.5355339,0.125631329 Z" id="path-1"></path>
    </defs>
    <g id="Assets" stroke="none" stroke-width="1" fill="none" fill-rule="evenodd">
        <g transform="translate(-43.000000, -720.000000)" id="Icon/Home-Request">
            <g transform="translate(41.000000, 35.000000)">
                <g transform="translate(2.000000, 685.000000)">
                    <g id="Rectangle" transform="translate(1.000000, 1.000000)">
                        <mask id="mask-2" fill="white">
                            <use xlink:href="#path-1"></use>
                        </mask>
                        <use id="Mask" fill="#979797" fill-rule="nonzero" xlink:href="#path-1"></use>
                        <rect fill="#444444" mask="url(#mask-2)" x="-1" y="-1" width="24" height="24"></rect>
                    </g>
                </g>
            </g>
        </g>
    </g>
</svg>