<?xml version="1.0" encoding="UTF-8"?>
<svg width="24px" height="24px" viewBox="0 0 24 24" version="1.1" xmlns="http://www.w3.org/2000/svg" xmlns:xlink="http://www.w3.org/1999/xlink">
    <!-- Generator: Sketch 60 (88103) - https://sketch.com -->
    <title>SVG/ic-request-home-out-dark</title>
    <desc>Created with Sketch.</desc>
    <defs>
        <path d="M10.7456679,3.32944604 C10.4002071,2.98298893 9.86061146,2.94089285 9.46805749,3.2134296 L9.37317981,3.28812459 L0.373179809,11.2881246 C-0.28544019,11.8735646 0.0839613433,12.9417368 0.925188342,13.0297348 L1.03754365,13.0355315 L2.03807755,13.035 L2.03754365,20.0355315 C2.03754365,20.5562404 2.43521811,20.9829599 2.94178785,21.0310296 L3.05190003,21.0355315 L8.30190003,20.9600521 C8.80948503,20.9527642 9.22427835,20.5682324 9.28094482,20.0756288 L9.28754365,19.9601551 L9.28807755,16.035 L10.7880776,16.035 L10.7875436,19.9601551 C10.7875436,20.4677924 11.1660809,20.8880635 11.6578202,20.9517961 L11.7731873,20.9600521 L17.0231873,21.0355315 C17.5438401,21.0429063 17.9762248,20.651399 18.031562,20.1455716 L18.0375436,20.0355315 L18.0375436,12.0355315 C18.0375436,11.4832492 17.5898284,11.0355315 17.0375436,11.0355315 C16.5247078,11.0355315 16.1020365,11.4215741 16.0442714,11.9189128 L16.0375436,12.0355315 L16.0380776,19.021 L12.7880776,18.974 L12.7875436,15.0355315 C12.7875436,14.5226981 12.4015035,14.1000267 11.9041648,14.0422616 L11.7875436,14.0355315 L8.28754365,14.0355315 C7.77470781,14.0355315 7.35203649,14.4215741 7.29427138,14.9189128 L7.28754365,15.0355315 L7.28807755,18.974 L4.03807755,19.021 L4.03754365,12.0355315 C4.03754365,11.6804937 3.85251847,11.3686685 3.57363183,11.1912219 L3.52407755,11.163 L9.99707755,5.409 L11.5991465,7.01789471 C11.959111,7.37889737 12.5263015,7.40744365 12.9190315,7.10298394 L13.0133585,7.01993108 C13.3743612,6.65996656 13.4029075,6.09277602 13.0984478,5.700046 L13.0153949,5.60571898 L10.7456679,3.32944604 Z M18.5355339,10.1256313 C17.9832492,10.1256313 17.5355339,9.67791608 17.5355339,9.12563133 L17.5355339,9.12563133 L17.5355339,3.59463133 L16.4142136,4.71572875 L16.3269927,4.79343512 C15.9344751,5.10426057 15.3626297,5.07835845 15,4.71572875 C14.6094757,4.32520446 14.6094757,3.69203948 15,3.30151519 L15,3.30151519 L17.8284271,0.473088065 L17.9156479,0.395381701 C17.9185627,0.393073591 17.9214873,0.390784049 17.9244216,0.388513075 C17.9520029,0.367277446 17.9805067,0.347511546 18.0100324,0.329239402 C18.0234113,0.320859759 18.0369443,0.312927162 18.0506174,0.305339592 C18.069615,0.294861758 18.0893636,0.284723594 18.1094797,0.275236403 C18.1242316,0.26825786 18.138824,0.261821371 18.1535317,0.255750701 C18.1764036,0.246282679 18.1999021,0.237574099 18.2237975,0.229741528 C18.2350245,0.226122508 18.2466715,0.222543202 18.2583677,0.219181322 C18.2855333,0.211291879 18.3128966,0.204655482 18.3406732,0.199169342 C18.3523978,0.196936238 18.3644035,0.194786948 18.3764376,0.192858025 C18.428315,0.184492707 18.4814226,0.180194847 18.5355339,0.180194847 L18.444467,0.184324748 C18.4635353,0.182591382 18.4826438,0.181403651 18.5017672,0.180761555 L18.5355339,0.180194847 C18.5466605,0.180194847 18.5577447,0.180376566 18.5687836,0.1807372 C18.584321,0.181249096 18.6004152,0.182159378 18.616484,0.183456592 C18.6394952,0.185271251 18.6621163,0.187871972 18.6844951,0.191214189 C18.6992735,0.193501992 18.7139268,0.196032239 18.7285285,0.198890148 C18.7565252,0.204273232 18.7842148,0.210943946 18.8114295,0.218738917 C18.8192713,0.221055038 18.8276069,0.223552272 18.8359152,0.226160505 C18.8622823,0.234402123 18.8877298,0.243588907 18.9126745,0.253753883 C18.9278284,0.259920448 18.9428572,0.26646667 18.9577504,0.273399673 C18.9756682,0.281791244 18.9933975,0.290715774 19.0108154,0.300142309 C19.0269334,0.308768619 19.0431114,0.318102259 19.0590732,0.327925822 C19.076306,0.338638696 19.0931657,0.349738503 19.1096595,0.36132399 C19.1563173,0.394009448 19.2008672,0.431314546 19.2426407,0.473088065 L19.158092,0.397572184 C19.1876883,0.421146586 19.2159172,0.44636459 19.2426407,0.473088065 L22.0710678,3.30151519 L22.1487742,3.388736 C22.4595996,3.78125366 22.4336975,4.35309905 22.0710678,4.71572875 L22.0710678,4.71572875 L21.983847,4.79343512 C21.5913293,5.10426057 21.0194839,5.07835845 20.6568542,4.71572875 L20.6568542,4.71572875 L19.5355339,3.59463133 L19.5355339,9.12563133 L19.5288062,9.24225245 C19.4710411,9.73959114 19.0483697,10.1256313 18.5355339,10.1256313 Z" id="path-1"></path>
    </defs>
    <g id="Assets" stroke="none" stroke-width="1" fill="none" fill-rule="evenodd">
        <g transform="translate(-43.000000, -769.000000)" id="Icon/Home-Request">
            <g transform="translate(41.000000, 35.000000)">
                <g transform="translate(2.000000, 734.000000)">
                    <g id="Rectangle" transform="translate(1.000000, 2.000000)">
                        <mask id="mask-2" fill="white">
                            <use xlink:href="#path-1"></use>
                        </mask>
                        <use id="Mask" fill="#979797" fill-rule="nonzero" xlink:href="#path-1"></use>
                        <rect fill="#444444" mask="url(#mask-2)" x="-1" y="-2" width="24" height="24"></rect>
                    </g>
                </g>
            </g>
        </g>
    </g>
</svg>