<?xml version="1.0" encoding="UTF-8"?>
<svg width="22px" height="24px" viewBox="0 0 22 24" version="1.1" xmlns="http://www.w3.org/2000/svg" xmlns:xlink="http://www.w3.org/1999/xlink">
    <!-- Generator: Sketch 60 (88103) - https://sketch.com -->
    <title>SVG/ic-support-grey</title>
    <desc>Created with Sketch.</desc>
    <defs>
        <path d="M18.7609557,9.44447913 L18.7043964,9.44447913 L18.7043964,8.05891216 C18.7043964,3.608103 15.0963475,0 10.6454843,0 C6.19462097,0 2.5865721,3.608103 2.5865721,8.05891216 L2.5865721,9.44447913 L2.24727056,9.44447913 C1.00307472,9.44447913 0.0416752566,10.5472497 0.0416752566,11.8197523 L0.0416752566,15.3543553 C0.0103376286,16.5876722 0.984780902,17.6128836 2.21809788,17.6442212 C2.22784015,17.6444918 2.23752829,17.6446542 2.24727056,17.6447624 L4.33974731,17.6447624 C4.63612874,17.6308526 4.86512616,17.3792315 4.85116224,17.0828501 C4.85067513,17.0721877 4.84986327,17.0615253 4.84872668,17.0509171 L4.84872668,10.1230822 C4.84872668,9.78378067 4.65079627,9.44442501 4.33974731,9.44442501 L3.71764939,9.44442501 L3.71764939,8.05885803 C3.71764939,4.23274473 6.81937095,1.13102317 10.6454843,1.13102317 C14.4715976,1.13102317 17.5733191,4.23274473 17.5733191,8.05885803 L17.5733191,9.44442501 L16.9512212,9.44442501 C16.6401722,9.44442501 16.4422418,9.78372654 16.4422418,10.1230822 L16.4422418,17.0509171 C16.4106877,17.3459454 16.6242599,17.6107186 16.9192882,17.6422727 C16.9298965,17.6434093 16.9405588,17.6442212 16.9512212,17.6447083 L17.6015717,17.6447083 L17.5450124,17.7295201 C16.696515,18.8571876 15.3650718,19.5176593 13.9538501,19.5109479 C13.644912,17.9960794 12.1663605,17.0184428 10.651492,17.3274351 C9.35604099,17.5916129 8.42202813,18.7261541 8.41158225,20.048234 C8.42706163,21.5988783 9.68857706,22.8476205 11.2392755,22.8476205 C12.0069121,22.8351721 12.7386105,22.5201721 13.2751929,21.9710329 C13.6372264,21.6002855 13.8744507,21.1257829 13.9538501,20.6137185 C15.7210975,20.6204299 17.3877289,19.7923371 18.4498526,18.3798706 L18.9871387,17.5880949 C20.2030278,17.503283 20.9664969,16.739814 20.9664969,15.6369893 L20.9664969,12.1023863 C20.9664969,10.8866054 20.0617108,9.44447913 18.7609557,9.44447913 Z M3.71764939,16.5136851 L2.24727056,16.5136851 C1.63837882,16.4988552 1.15678605,15.9932857 1.17161595,15.3843939 C1.17188657,15.374381 1.17226543,15.3643681 1.17275255,15.3543011 L1.17275255,11.8196981 C1.17275255,11.1693476 1.62517264,10.5755023 2.24727056,10.5755023 L3.71764939,10.5755023 L3.71764939,16.5136851 L3.71764939,16.5136851 Z M12.4552187,21.1793654 C12.1418425,21.5191541 11.7015461,21.7137288 11.2393296,21.7166515 C10.3193348,21.7020381 9.57275232,20.9679041 9.54271352,20.0482881 C9.5423348,19.1268861 10.2889714,18.3796542 11.2103734,18.3792751 C12.1317755,18.3788964 12.8790074,19.125533 12.8793863,20.046935 C12.8793863,20.047368 12.8793863,20.0478551 12.8793863,20.0482881 C12.9029301,20.4681257 12.7490022,20.8785458 12.4552187,21.1793654 Z M19.8354737,15.6370975 C19.8354737,16.4005666 19.1002572,16.5136851 18.7609557,16.5136851 L17.5733191,16.5136851 L17.5733191,10.5755564 L18.7609557,10.5755564 C19.3830536,10.5755564 19.8354737,11.452144 19.8354737,12.1024945 L19.8354737,15.6370975 Z" id="path-1"></path>
    </defs>
    <g id="Sign-Up-&amp;-Login" stroke="none" stroke-width="1" fill="none" fill-rule="evenodd">
        <g id="Assets" transform="translate(-44.000000, -434.000000)">
            <g transform="translate(41.000000, 35.000000)" id="Icon/Support">
                <g transform="translate(0.000000, 397.000000)">
                    <g id="Rectangle" transform="translate(3.500000, 2.333333)">
                        <mask id="mask-2" fill="white">
                            <use xlink:href="#path-1"></use>
                        </mask>
                        <use id="Mask" fill="#000000" fill-rule="nonzero" xlink:href="#path-1"></use>
                        <rect fill="#ABABAB" mask="url(#mask-2)" x="-3.5" y="-2.33333333" width="28" height="28"></rect>
                    </g>
                </g>
            </g>
        </g>
    </g>
</svg>