<?xml version="1.0" encoding="UTF-8"?>
<svg width="24px" height="24px" viewBox="0 0 24 24" version="1.1" xmlns="http://www.w3.org/2000/svg" xmlns:xlink="http://www.w3.org/1999/xlink">
    <!-- Generator: Sketch 60 (88103) - https://sketch.com -->
    <title>SVG/item-logo-aparat-silhouette</title>
    <desc>Created with Sketch.</desc>
    <g id="Sign-Up-&amp;-Login" stroke="none" stroke-width="1" fill="none" fill-rule="evenodd">
        <g id="Assets" transform="translate(-260.000000, -430.000000)" fill="#212121">
            <g transform="translate(41.000000, 35.000000)" id="Aparat/Silhouette">
                <g transform="translate(219.000000, 395.000000)">
                    <g id="icon--color-black">
                        <path d="M20.8347826,18.6608696 L20.2017391,21.04 C19.6800766,23.0041259 17.6650633,24.1735811 15.7008696,23.6521739 L15.7008696,23.6521739 L13.4573913,23.0469565 C16.3985268,22.614509 19.0499234,21.0381719 20.8347826,18.6608696 L20.8347826,18.6608696 Z M11.8852174,1.57912984 C17.5757537,1.58105097 22.1878261,6.1946808 22.1878261,11.8852174 C22.1878261,16.0539569 19.6764519,19.8121501 15.8249041,21.4071325 C11.9733563,23.0021149 7.54025175,22.1197322 4.5930053,19.1714907 C1.64575885,16.2232493 0.76487256,11.7898471 2.361155,7.93883794 C3.95743743,4.08782876 7.71647809,1.5777235 11.8852174,1.57912984 Z M0.660869565,13.68 C1.10939764,16.4789693 2.59594552,19.0062249 4.82434783,20.7582609 L4.82434783,20.7582609 L2.7373913,20.2017391 C0.77326536,19.6800766 -0.396189816,17.6650633 0.125217391,15.7008696 L0.125217391,15.7008696 Z M15.3843478,13.5965217 C13.7886392,13.2897999 12.2463557,14.3345368 11.9393031,15.9301818 C11.6322505,17.5258268 12.6766678,19.0683269 14.2722491,19.3757101 C15.8678304,19.6830934 17.4105469,18.6389958 17.7182609,17.0434783 C17.866112,16.2768601 17.7032416,15.4829096 17.2655063,14.8364183 C16.827771,14.1899269 16.1510577,13.7438962 15.3843478,13.5965217 Z M8,12.173913 C6.40474783,11.8657306 4.86160796,12.908774 4.55285638,14.5039162 C4.2441048,16.0990583 5.2865977,17.6425702 6.88162957,17.9518908 C8.47666144,18.2612114 10.0205451,17.2192692 10.3304348,15.6243478 C10.4793907,14.8577106 10.3174797,14.0633045 9.8803667,13.4161163 C9.44325367,12.768928 8.76679616,12.3220483 8,12.173913 Z M12.0706901,10.6726971 C11.3620147,10.5385962 10.67855,11.0035382 10.5430048,11.7119388 C10.4074597,12.4203393 10.8710076,13.1047503 11.5791304,13.2417391 C11.9210343,13.3078816 12.2751986,13.2349323 12.5631334,13.0390583 C12.8510682,12.8431843 13.0489929,12.5405628 13.1130435,12.1982609 C13.2456996,11.4893136 12.7793655,10.806798 12.0706901,10.6726971 Z M16.8837312,5.81060742 C15.2880863,5.50355483 13.7455862,6.54797214 13.4382029,8.14355345 C13.1308196,9.73913475 14.1749172,11.2818513 15.7704348,11.5895652 L15.7704348,11.5895652 C16.5375555,11.7408146 17.3319523,11.5774743 17.9785367,11.1390235 C18.6251211,10.7005727 19.0708171,10.0230025 19.2173913,9.25565217 C19.5241132,7.65994359 18.4793762,6.11766 16.8837312,5.81060742 Z M18.6886957,2.9426087 L21.0295652,3.56521739 C22.9899126,4.08547662 24.159745,6.09379265 23.6452174,8.05565217 L23.6452174,8.05565217 L23.0017391,10.4904348 C22.631352,7.49892241 21.0779559,4.78047924 18.6886957,2.9426087 L18.6886957,2.9426087 Z M9.49470742,4.38776811 C7.89912612,4.08038483 6.35640961,5.12448243 6.04869565,6.72 C5.90084451,7.48661812 6.0637149,8.28056864 6.50145022,8.92706 C6.93918555,9.57355137 7.6158988,10.0195821 8.3826087,10.1669565 C9.97831728,10.4736784 11.5206009,9.42894143 11.8276535,7.83329645 C12.134706,6.23765147 11.0902887,4.69515139 9.49470742,4.38776811 Z M5.27599966,0.497746185 C6.1208617,0.0077914389 7.12583614,-0.126224358 8.06956522,0.125217391 L8.06956522,0.125217391 L10.2573913,0.695652174 C7.40940712,1.09032834 4.81997336,2.55862811 3.01913043,4.8 L3.01913043,4.8 L3.56521739,2.7373913 C3.81569029,1.79340462 4.43113761,0.987700931 5.27599966,0.497746185 Z" id="Combined-Shape"></path>
                    </g>
                </g>
            </g>
        </g>
    </g>
</svg>