<?xml version="1.0" encoding="UTF-8"?>
<svg width="24px" height="24px" viewBox="0 0 24 24" version="1.1" xmlns="http://www.w3.org/2000/svg" xmlns:xlink="http://www.w3.org/1999/xlink">
    <!-- Generator: Sketch 60 (88103) - https://sketch.com -->
    <title>SVG/item-logo-linkedin-silhouette</title>
    <desc>Created with Sketch.</desc>
    <g id="Sign-Up-&amp;-Login" stroke="none" stroke-width="1" fill="none" fill-rule="evenodd">
        <g id="Assets" transform="translate(-260.000000, -479.000000)" fill="#212121">
            <g transform="translate(41.000000, 35.000000)" id="LinkedIn/Silhouette">
                <g transform="translate(219.000000, 444.000000)">
                    <path d="M23,22 L18.1376999,22 L18.1376999,14.9692002 C18.1376999,13.128898 17.3771167,11.8725748 15.7046096,11.8725748 C14.4253293,11.8725748 13.7138993,12.7203688 13.3827611,13.5374272 C13.2585842,13.8306973 13.2779868,14.2392265 13.2779868,14.6477557 L13.2779868,22 L8.46095955,22 C8.46095955,22 8.52304798,9.54562336 8.46095955,8.41352372 L13.2779868,8.41352372 L13.2779868,10.5458155 C13.5625588,9.61349811 15.1018344,8.28289684 17.5582079,8.28289684 C20.605715,8.28289684 23,10.2371774 23,14.4454121 L23,22 L23,22 Z M3.58960489,6.71409362 L3.55856068,6.71409362 C2.00634995,6.71409362 1,5.67548185 1,4.35896779 C1,3.01684062 2.03610066,2 3.6193556,2 C5.20131703,2 6.17403575,3.01427931 6.20507996,4.35512582 C6.20507996,5.67163988 5.20131703,6.71409362 3.58960489,6.71409362 L3.58960489,6.71409362 L3.58960489,6.71409362 Z M1.55491533,8.41352372 L5.84289746,8.41352372 L5.84289746,22 L1.55491533,22 L1.55491533,8.41352372 L1.55491533,8.41352372 Z" id="LinkedIn"></path>
                </g>
            </g>
        </g>
    </g>
</svg>