<?xml version="1.0" encoding="UTF-8"?>
<svg width="36px" height="31px" viewBox="0 0 36 31" version="1.1" xmlns="http://www.w3.org/2000/svg" xmlns:xlink="http://www.w3.org/1999/xlink">
    <!-- Generator: Sketch 60 (88103) - https://sketch.com -->
    <title>SVG/item-logo-shape</title>
    <desc>Created with Sketch.</desc>
    <g id="Sign-Up-&amp;-Login" stroke="none" stroke-width="1" fill="none" fill-rule="evenodd">
        <g id="Assets" transform="translate(-254.000000, -273.000000)">
            <g transform="translate(41.000000, 35.000000)" id="Logo/Shape">
                <g transform="translate(213.000000, 238.000000)">
                    <g id="Group-22" transform="translate(0.375000, 0.000000)">
                        <path d="M25.4215285,14.281703 C24.7851561,14.2298225 24.2459147,14.1824317 23.7061905,14.1424239 C22.3861354,14.0447489 21.0659836,14.0552248 19.7610871,14.2891857 C19.3767146,14.3581269 19.2171146,14.2288248 19.0505629,13.9156464 C18.6013077,13.0710924 18.1228939,12.2431002 17.6601215,11.4061287 C17.5569077,11.2194588 17.4688526,11.0738942 17.3101215,11.3605338 C16.1843284,13.3926515 15.0565077,15.4235719 13.9305215,17.4555899 C13.9243422,17.4666644 13.9339974,17.4871173 13.9434594,17.5541628 C14.2662318,17.4655669 14.5848525,17.3764722 14.9043422,17.2908694 C18.9670457,16.2026768 23.0679836,15.7835425 27.2299423,16.5832998 C29.1379975,16.9498552 30.9360803,17.6378699 32.6038182,18.6732842 C32.6972803,18.7313504 32.8155561,18.7652722 32.8654734,18.9400694 C31.700963,18.7021177 30.5462044,18.560943 29.3783147,18.5419867 C24.6539423,18.4651637 20.2952112,19.8074708 16.2020939,22.1693288 C12.4697905,24.3230663 9.27276973,27.1591316 6.43096281,30.4368792 C6.18002488,30.7264121 5.93082488,30.832767 5.56363867,30.8291681 C3.858149,30.8116158 2.15227312,30.8145091 0.4466869,30.8280778 C0.0790179317,30.8310709 -0.0737268972,30.801539 0.166300691,30.3868944 C1.39627312,28.2620902 2.61311451,26.1290051 3.82841107,23.9950221 C7.70950076,17.1807232 11.5876939,10.3647282 15.467625,3.54963116 C16.1155836,2.41145368 16.7662457,1.27497229 17.4683698,0.0456049199 C20.1358043,4.82030335 22.7570871,9.51239213 25.4215285,14.281703" id="Fill-4" fill="#D7181E"></path>
                        <path d="M31.0988085,20.6131544 C30.1157189,20.9963714 29.1205602,21.3499567 28.1515671,21.7683926 C24.6008775,23.3018593 21.3715119,25.3366708 18.7511946,28.3027366 C18.153636,28.9791779 17.6255946,29.709595 17.168036,30.493389 C17.0459946,30.7025072 16.9224084,30.8382943 16.6460774,30.836516 C14.5596912,30.8225306 12.4732084,30.8289159 10.3867256,30.8289159 L10.3557325,30.6484318 L10.3557325,30.6484318 C15.9479119,24.4105048 22.5975257,20.4848501 31.0988085,20.6131544 Z M30.4373616,23.2191099 C31.8810996,25.6535008 33.3467548,28.0742231 34.8043962,30.4999339 C34.8527686,30.5804484 34.8885893,30.6689445 34.9672789,30.8289758 L31.4391816,30.8286103 C30.6683172,30.8290133 29.9032954,30.8301158 29.1382582,30.8326716 C28.9125202,30.8334654 28.7921202,30.7251151 28.6794444,30.5416378 C27.6726995,28.9013173 26.6618995,27.2636907 25.644534,25.6303541 C25.5197892,25.4301155 25.4838719,25.3018111 25.712603,25.1509587 C26.9877616,24.3100962 28.2889892,23.5244065 29.7049203,22.9542203 C30.0547272,22.8133449 30.2369203,22.8811886 30.4373616,23.2191099 Z" id="Combined-Shape" fill="#2F2F2F"></path>
                    </g>
                </g>
            </g>
        </g>
    </g>
</svg>