<?xml version="1.0" encoding="UTF-8"?>
<svg width="235px" height="52px" viewBox="0 0 235 52" version="1.1" xmlns="http://www.w3.org/2000/svg" xmlns:xlink="http://www.w3.org/1999/xlink">
    <!-- Generator: Sketch 60 (88103) - https://sketch.com -->
    <title>SVG/item-logo-text-horizontal</title>
    <desc>Created with Sketch.</desc>
    <g id="Sign-Up-&amp;-Login" stroke="none" stroke-width="1" fill="none" fill-rule="evenodd">
        <g id="Assets" transform="translate(-235.000000, -39.000000)">
            <g transform="translate(41.000000, 35.000000)" id="Logo/Original/Horizontal">
                <g transform="translate(194.000000, 4.000000)">
                    <g id="Group" transform="translate(6.192095, 2.600000)" fill="#666666">
                        <path d="M143.143453,16.1469496 C143.501552,16.1469496 143.832338,16.1120056 144.135811,16.0421176 C144.439285,15.9722296 144.72455,15.8734748 144.991607,15.7458532 C145.258663,15.6182317 145.513581,15.4632626 145.75636,15.2809461 C145.999139,15.0986295 146.241917,14.8950428 146.484696,14.6701857 C146.624294,14.761344 146.776031,14.8555408 146.939906,14.9527763 C147.103782,15.0500118 147.269175,15.1442087 147.436085,15.2353669 C147.602996,15.3265252 147.762319,15.4100869 147.914056,15.4860522 C148.065793,15.5620174 148.202356,15.6273475 148.323745,15.6820424 C148.621149,15.7975096 148.923105,15.8886678 149.229614,15.9555172 C149.536122,16.0223666 149.825939,16.0557913 150.099065,16.0557913 C150.256871,16.0557913 150.407091,16.0481948 150.549723,16.0330018 C150.692356,16.0178087 150.836506,15.9889419 150.982173,15.9464014 C151.419175,15.8187798 151.824312,15.5832877 152.197584,15.2399249 C152.570857,14.8965621 152.857639,14.4696375 153.057931,13.9591512 C153.161112,13.6795992 153.241533,13.3833349 153.299193,13.0703582 C153.356853,12.7573815 153.385683,12.4368082 153.385683,12.1086385 C153.385683,11.8047776 153.367474,11.5343414 153.331058,11.2973299 L153.331058,11.3155616 C153.276432,10.8415386 153.164147,10.3933438 152.994202,9.97097718 C152.824257,9.54861056 152.602721,9.17334237 152.329595,8.84517262 C151.965427,8.4258446 151.56029,8.10375207 151.114184,7.87889501 C150.668078,7.65403796 150.171899,7.54160944 149.625647,7.54160944 C149.164367,7.54160944 148.7304,7.64644144 148.323745,7.85610545 C147.917091,8.06576946 147.549888,8.36203381 147.222137,8.74489852 C147.009705,9.01837332 146.813965,9.31615698 146.634916,9.63824951 C146.455866,9.96034205 146.287438,10.2854732 146.129632,10.6136429 C145.965757,10.923581 145.792777,11.2365577 145.610693,11.5525731 C145.428608,11.8685884 145.222247,12.1542176 144.991607,12.4094607 C144.760967,12.6647039 144.495428,12.8713293 144.194989,13.0293369 C143.89455,13.1873446 143.541003,13.2663484 143.134349,13.2663484 C143.088565,13.2691267 142.21732,13.2721654 140.520612,13.2754643 L140.520612,16.1469496 C142.232822,16.1469496 143.107102,16.1469496 143.143453,16.1469496 Z M150.837644,13.2834406 L150.800089,13.2845801 C150.690838,13.2845801 150.52848,13.2557133 150.313014,13.1979797 C150.097548,13.1402462 149.862356,13.0658003 149.607438,12.974642 C149.35252,12.8834837 149.096085,12.780171 148.838133,12.6647039 C148.58018,12.5492368 148.357127,12.430731 148.168974,12.3091867 L148.168974,12.3091867 L148.451204,11.7257738 C148.706122,11.2517508 148.900345,10.893195 149.033873,10.6501062 C149.167402,10.4070175 149.276652,10.2854732 149.361625,10.2854732 C149.598334,10.2854732 149.830491,10.3538419 150.058096,10.4905793 C150.285701,10.6273167 150.487511,10.7974788 150.663526,11.0010656 C150.83954,11.2046524 150.982173,11.4234322 151.091423,11.6574051 C151.200674,11.8913779 151.255299,12.1055999 151.255299,12.3000708 C151.273507,12.5917773 151.247712,12.8211922 151.177913,12.9883157 C151.108114,13.1554392 151.036798,13.2481168 150.963965,13.2663484 C150.933617,13.2724257 150.904787,13.2769836 150.877475,13.2800222 C150.850162,13.2830608 150.824367,13.2845801 150.800089,13.2845801 L150.837644,13.2834406 Z M123.469268,9.38300637 L121.04755,9.03660497 C120.847258,9.92995596 120.637861,10.6531449 120.41936,11.2061717 C120.200859,11.7591985 119.967184,12.1876423 119.718336,12.4915032 C119.469488,12.7953641 119.205466,13.0004702 118.926271,13.1068215 C118.647075,13.2131728 118.346636,13.2663484 118.024954,13.2663484 C117.983959,13.268694 117.259676,13.2595782 115.852104,13.239001 L115.852104,16.1742971 C117.246913,16.1560654 117.977266,16.1469496 118.043163,16.1469496 C118.753291,16.1469496 119.349616,16.0497141 119.832139,15.8552431 C120.314662,15.6607722 120.719799,15.335641 121.04755,14.8798497 C121.338885,15.2809461 121.706087,15.5969614 122.149159,15.8278957 C122.59223,16.0588299 123.071718,16.1742971 123.587623,16.1742971 C124.139945,16.1742971 124.646745,16.0497141 125.108025,15.8005482 C125.569305,15.5513823 125.982029,15.2262511 126.346197,14.8251548 C126.65574,15.2323283 127.042668,15.5544209 127.506983,15.7914324 C127.971297,16.0284438 128.479615,16.1469496 129.031937,16.1469496 C129.523564,16.1469496 129.983326,16.0451562 130.411224,15.8415694 C130.839121,15.6379826 131.216946,15.3629885 131.544697,15.0165871 C131.575045,14.986201 131.608427,14.9527763 131.644844,14.916313 C131.68126,14.8798497 131.717677,14.8373092 131.754094,14.7886914 C132.136471,15.2809461 132.588646,15.6303861 133.11062,15.8370115 C133.632595,16.0436369 134.187951,16.1469496 134.77669,16.1469496 C134.835913,16.1469496 136.750554,16.1560654 140.520612,16.1742971 L140.520612,13.2754643 C136.820921,13.269387 134.942697,13.2663484 134.88594,13.2663484 L134.77669,13.2663484 C134.612814,13.2663484 134.439834,13.2314044 134.25775,13.1615164 C134.075666,13.0916284 133.902686,12.9883157 133.73881,12.8515783 C133.574935,12.7148409 133.432302,12.5431595 133.310913,12.3365341 C133.189524,12.1299087 133.11062,11.88682 133.074204,11.607268 L132.773765,9.03660497 L130.31563,9.38300637 C130.333838,9.58963177 130.342942,9.82816257 130.342942,10.0985987 C130.342942,10.3690349 130.327769,10.6470676 130.297421,10.9326969 C130.267074,11.2183261 130.221553,11.4993974 130.160858,11.7759108 C130.100164,12.0524242 130.019743,12.2985515 129.919597,12.5142928 C129.819451,12.730034 129.696544,12.904754 129.550877,13.0384528 C129.405209,13.1721516 129.232229,13.239001 129.031937,13.239001 C128.807367,13.239001 128.631352,13.164555 128.503893,13.0156632 C128.376434,12.8667714 128.282358,12.675339 128.221663,12.4413661 C128.160968,12.2073933 128.129103,11.9460729 128.126069,11.6574051 C128.123034,11.3687372 128.130621,11.0815887 128.148829,10.7959595 C128.167038,10.5103302 128.191315,10.2414134 128.221663,9.98920883 C128.25201,9.7370043 128.273253,9.53493682 128.285392,9.38300637 L125.881882,9.03660497 C125.839396,9.27969368 125.778701,9.55924569 125.699798,9.875261 C125.620895,10.1912763 125.526818,10.5133689 125.417568,10.8415386 C125.308318,11.1697084 125.186928,11.4902816 125.0534,11.8032583 C124.919871,12.116235 124.774204,12.3897098 124.616398,12.6236827 C124.458592,12.8576555 124.291681,13.0369335 124.115667,13.1615164 C123.939652,13.2860994 123.757568,13.324082 123.569415,13.2754643 C123.3934,13.2329237 123.270493,13.0977056 123.200694,12.86981 C123.130895,12.6419143 123.094479,12.3714781 123.091444,12.0585014 C123.088409,11.7455247 123.109652,11.417355 123.155173,11.0739922 C123.200694,10.7306294 123.24925,10.4206913 123.300841,10.1441779 C123.352431,9.86766448 123.397952,9.65344256 123.437404,9.50151212 C123.457129,9.4255469 123.469648,9.37768881 123.474958,9.35793785 L123.469268,9.38300637 Z M101.855888,16.1469496 C102.135084,16.1347952 102.414279,16.108967 102.693475,16.0694651 C102.97267,16.0299631 103.245796,15.9661524 103.512853,15.8780327 C103.77991,15.7899131 104.040897,15.6774845 104.295815,15.5407471 C104.550732,15.4040097 104.793511,15.2323283 105.024151,15.0257029 C105.109124,14.9406219 105.194096,14.8525022 105.279069,14.761344 C105.364041,14.6701857 105.43991,14.582066 105.506674,14.496985 C105.7798,14.776537 106.074169,15.0287415 106.389782,15.2535986 C106.705394,15.4784556 107.045284,15.6577336 107.409452,15.7914324 C107.761482,15.9068995 108.118063,15.9950191 108.479196,16.0557913 C108.84033,16.1165635 109.251536,16.1469496 109.712816,16.1469496 L109.78565,16.1469496 C109.837725,16.1469496 111.859876,16.1469496 115.852104,16.1469496 L115.852104,13.2663484 C111.852881,13.2663484 109.83073,13.2663484 109.78565,13.2663484 L109.412377,13.2663484 C109.145321,13.2602712 108.894955,13.2131728 108.66128,13.1250531 C108.427606,13.0369335 108.207588,12.9169084 108.001226,12.764978 C107.794864,12.6130475 107.605193,12.4383275 107.432213,12.240818 C107.259233,12.0433084 107.099909,11.8290865 106.954242,11.5981522 C106.796436,11.3429091 106.649251,11.0891852 106.512688,10.8369807 C106.376125,10.5847762 106.238045,10.3310523 106.098447,10.0758092 L106.107551,10.084925 L106.016509,9.92084013 C105.816217,9.53189821 105.599233,9.15207211 105.365559,8.78136183 C105.131884,8.41065156 104.873932,8.04297989 104.591701,7.67834683 C104.309471,7.31371378 103.998411,6.94756141 103.65852,6.57988975 C103.31863,6.21221808 102.939288,5.83391128 102.520495,5.44496936 L109.430586,2.61906316 L108.374498,0.112210896 L100.007735,3.62180407 L99.761921,6.12865634 C100.035047,6.33528174 100.332451,6.58140905 100.654133,6.86703828 C100.975815,7.15266751 101.297497,7.46260561 101.619179,7.79685258 C101.94086,8.13109955 102.250403,8.48205886 102.547807,8.84973053 C102.845211,9.21740219 103.107716,9.58507386 103.335321,9.95274553 C103.562926,10.3204172 103.740458,10.6804923 103.867917,11.032971 C103.995376,11.3854496 104.050001,11.7136193 104.031793,12.0174802 C104.007515,12.1694107 103.919508,12.3198218 103.767771,12.4687136 C103.616034,12.6176055 103.436985,12.7513042 103.230623,12.86981 C103.024261,12.9883157 102.807277,13.0840319 102.579672,13.1569585 C102.352067,13.2298851 102.150257,13.2663484 101.974243,13.2663484 L97.6753082,13.2663484 L97.6753082,16.1469496 L101.855888,16.1469496 Z M81.8721601,11.397604 L83.8932934,9.37389055 L81.8721601,7.35017708 L79.8510268,9.37389055 L81.8721601,11.397604 Z M81.7173886,22.4095223 C82.6642258,22.4095223 83.5063647,22.3062096 84.2438052,22.0995842 C84.9812457,21.8929588 85.6595089,21.589098 86.2785948,21.1880016 C86.7155966,20.9084496 87.0964558,20.5681254 87.4211724,20.167029 C87.745889,19.7659327 88.0159804,19.3298923 88.2314466,18.8589079 C88.4469127,18.3879236 88.6123058,17.8971883 88.7276257,17.386702 C88.8429456,16.8762157 88.9097098,16.3748452 88.9279182,15.8825906 C89.455962,16.0588299 89.9991795,16.1469496 90.5575707,16.1469496 C90.6040857,16.1469496 92.9766648,16.1469496 97.6753082,16.1469496 L97.6753082,13.234443 C92.9716724,13.2557133 90.5990932,13.2663484 90.5575707,13.2663484 C90.3876256,13.2663484 90.2040241,13.2557133 90.0067664,13.234443 C89.8095086,13.2131728 89.6016293,13.1402462 89.3831284,13.0156632 C89.1646275,12.8910802 88.9385398,12.6935707 88.7048652,12.4231345 C88.4711906,12.1526983 88.2299292,11.7652757 87.981081,11.2608666 L87.0615564,9.48328047 L84.5761087,11.0603184 C84.812818,11.5343414 85.0419404,11.9977293 85.2634761,12.450482 C85.4850117,12.9032347 85.6792347,13.343833 85.8461451,13.7722768 C86.0130555,14.2007206 86.1481012,14.6139714 86.2512822,15.0120292 C86.3544632,15.4100869 86.4060537,15.7853551 86.4060537,16.1378338 C86.4060537,16.7455555 86.2892164,17.2651576 86.0555418,17.6966401 C85.8218672,18.1281225 85.4925985,18.4806012 85.0677357,18.7540759 C84.6428728,19.0275507 84.1360721,19.2265796 83.5473336,19.3511626 C82.9585951,19.4757455 82.3091618,19.5319598 81.5990339,19.5198054 C81.083129,19.5137281 80.5823978,19.4301664 80.0968403,19.2691201 C79.6112827,19.1080739 79.178833,18.8862554 78.7994912,18.6036648 C78.4201494,18.3210742 78.1151585,17.9822693 77.8845187,17.5872502 C77.6538788,17.192231 77.5385589,16.75771 77.5385589,16.283687 C77.5385589,15.9251311 77.5764931,15.5392278 77.6523615,15.125977 C77.7282298,14.7127262 77.8283761,14.2979561 77.9528002,13.8816667 C78.0772243,13.4653773 78.2213742,13.0612423 78.3852499,12.6692618 C78.5491256,12.2772813 78.7190707,11.9232833 78.8950853,11.607268 L76.8466394,10.1305041 C76.5370965,10.7078398 76.2685225,11.2456736 76.0409174,11.7440054 C75.8133123,12.2423373 75.6236413,12.7285147 75.4719046,13.2025376 C75.3201679,13.6765606 75.2078827,14.1490643 75.1350491,14.6200487 C75.0622154,15.091033 75.0257986,15.5878456 75.0257986,16.1104863 C75.0257986,16.5723548 75.0667675,17.0266268 75.1487054,17.4733023 C75.2306432,17.9199778 75.35355,18.3484217 75.5174256,18.7586339 C75.6813013,19.168846 75.8891806,19.557788 76.1410636,19.9254596 C76.3929466,20.2931313 76.6888332,20.6288976 77.0287235,20.9327585 C77.5871147,21.4128587 78.2441347,21.779011 78.9997837,22.0312155 C79.7554326,22.2834201 80.6613009,22.4095223 81.7173886,22.4095223 Z M66.2766585,16.1742971 L69.0898576,15.7367374 C69.1262744,15.2262511 69.153587,14.7036104 69.1717954,14.1688153 C69.1900038,13.6340201 69.2036601,13.1053022 69.2127643,12.5826615 C69.2218685,12.0600207 69.227938,11.5556117 69.2309727,11.0694343 C69.2340075,10.5832569 69.2355248,10.1305041 69.2355248,9.71117613 C69.2355248,9.24930759 69.227938,8.69324218 69.2127643,8.04297989 C69.1975907,7.3927176 69.1687607,6.68927966 69.1262744,5.93266607 C69.0837881,5.17605248 69.021576,4.38449488 68.9396382,3.55799329 C68.8577004,2.73149169 68.7499673,1.91106731 68.616439,1.09672015 L68.616439,1.09672015 L65.8032399,2.02653445 C65.8517957,2.32431811 65.8973167,2.61146664 65.939803,2.88798004 C65.9822893,3.16449345 66.0217408,3.4607578 66.0581576,3.77677312 C66.0945745,4.09278844 66.1294739,4.44070915 66.162856,4.82053525 C66.1962381,5.20036135 66.2296201,5.64247893 66.2630022,6.14688799 C66.2963843,6.65129705 66.3297664,7.23015203 66.3631485,7.88345293 C66.3965306,8.53675382 66.43143,9.29488672 66.4678468,10.1578516 C66.4860552,10.5711024 66.4921247,11.0238551 66.4860552,11.5161098 C66.4799858,12.0083644 66.4663294,12.5158121 66.4450863,13.0384528 C66.4238432,13.5610935 66.3980479,14.0898114 66.3677006,14.6246066 C66.3373532,15.1594017 66.3070059,15.6759652 66.2766585,16.1742971 L66.2766585,16.1742971 Z M57.1451419,16.1560654 C57.2847397,16.1560654 57.4273722,16.1499882 57.5730395,16.1378338 C57.7187067,16.1256793 57.8734782,16.1044091 58.0373539,16.074023 C59.4818876,15.8309343 60.5197668,15.1442087 61.1509917,14.0138462 C61.3209368,13.7039081 61.4635693,13.3529488 61.5788892,12.9609682 C61.6942092,12.5689877 61.7549039,12.1451018 61.7609733,11.6893105 C61.7670428,11.3064458 61.7139349,10.9144652 61.6016498,10.5133689 C61.4893646,10.1122725 61.3361105,9.71421474 61.1418875,9.31919559 C60.9476644,8.92417644 60.7200593,8.53827313 60.4590721,8.16148563 C60.198085,7.78469814 59.9188894,7.42766161 59.6214854,7.09037603 C59.3240814,6.75309045 59.0175732,6.44163305 58.7019608,6.15600382 C58.3863484,5.87037459 58.0798402,5.62424728 57.7824362,5.41762188 L63.8276276,2.60994734 L62.726019,0.166905854 L55.0784876,3.57622494 L54.7962572,6.05572973 C55.1361475,6.33528174 55.4760378,6.62394958 55.8159281,6.92173324 C56.1558184,7.2195169 56.480535,7.51881987 56.7900779,7.81964214 C57.0996209,8.12046441 57.3909554,8.41520947 57.6640815,8.70387731 C57.9372076,8.99254514 58.1799864,9.26601994 58.3924178,9.52430168 C58.6048493,9.78258343 58.7793465,10.0195949 58.9159096,10.2353361 C59.0524726,10.4510774 59.1419973,10.6349132 59.1844836,10.7868436 C59.2148309,10.9205424 59.2406262,11.0496833 59.2618693,11.1742663 C59.2831125,11.2988492 59.293734,11.4219129 59.293734,11.5434572 C59.293734,11.9020131 59.202692,12.221067 59.0206079,12.500619 C58.8870796,12.6829355 58.6731308,12.8257502 58.3787615,12.9290629 C58.0843923,13.0323756 57.7536062,13.1098601 57.3864033,13.1615164 C57.0192004,13.2131728 56.6383412,13.2435589 56.2438257,13.2526747 C55.8493102,13.2617905 55.4881767,13.2663484 55.1604254,13.2663484 L52.2333192,13.2663484 L52.2333192,16.1469496 L57.1451419,16.1560654 Z M9.8943229,22.163395 C10.4952004,22.163395 11.1006299,22.1087001 11.7106116,21.9993102 C12.3205933,21.8899202 12.9047797,21.7243161 13.4631709,21.5024976 C14.0215621,21.2806792 14.5435364,20.9996079 15.029094,20.6592837 C15.5146515,20.3189595 15.937997,19.9178631 16.2991304,19.4559946 C16.6602639,18.994126 16.9455289,18.4714853 17.1549256,17.8880724 C17.3643223,17.3046595 17.4720554,16.6574359 17.4781249,15.9464014 C17.6541395,16.0010964 17.8483625,16.0466755 18.0607939,16.0831388 C18.2732254,16.1196021 18.5068999,16.1378338 18.7618176,16.1378338 C19.1259858,16.1378338 19.4400808,16.1135249 19.7041028,16.0649071 C19.9681247,16.0162894 20.1987645,15.9448821 20.3960223,15.8506852 C20.59328,15.7564884 20.7647425,15.6440598 20.9104098,15.5133996 C21.0560771,15.3827395 21.1926401,15.2353669 21.320099,15.0712821 C21.5507388,15.3751429 21.8435907,15.6273475 22.1986547,15.8278957 C22.5537186,16.0284438 22.9922378,16.1287179 23.5142121,16.1287179 C24.1393675,16.1287179 24.6977587,16.0117315 25.1893857,15.7777586 C25.6810127,15.5437857 26.0907019,15.2171353 26.4184532,14.7978073 C26.7826214,15.2718302 27.2226579,15.6167123 27.7385628,15.8324536 C28.2544677,16.0481948 28.8523105,16.1560654 29.532091,16.1560654 C29.566138,16.1560654 37.1332141,16.1560654 52.2333192,16.1560654 L52.2333192,13.2663484 L29.441049,13.2663484 C29.2771733,13.2663484 29.1041934,13.2329237 28.9221093,13.1660743 C28.7400253,13.0992249 28.5670454,12.9974316 28.4031697,12.8606942 C28.239294,12.7239568 28.0966615,12.5522754 27.9752721,12.34565 C27.8538827,12.1390246 27.7749796,11.8959359 27.7385628,11.6163839 C27.7082155,11.397604 27.6809029,11.2061717 27.656625,11.0420868 C27.6323471,10.8780019 27.611104,10.7245522 27.5928956,10.5817376 C27.5746872,10.4389229 27.5579961,10.3006662 27.5428224,10.1669674 C27.5276488,10.0332687 27.5139925,9.88741544 27.5018535,9.72940778 L27.4381241,9.01837332 L24.9708848,9.37389055 C24.9708848,9.51974377 24.9724022,9.62457578 24.9754369,9.68838656 C24.9784716,9.75219735 24.979989,9.8068923 24.979989,9.85247144 C24.979989,9.89805057 24.9815064,9.94970692 24.9845411,10.0074405 C24.9875758,10.0651741 24.9890932,10.1608902 24.9890932,10.294589 C24.9890932,10.6349132 24.963298,10.9828339 24.9117075,11.3383511 C24.860117,11.6938684 24.7812139,12.0174802 24.6749982,12.3091867 C24.5687824,12.6008931 24.4382889,12.8394239 24.2835174,13.024779 C24.1287459,13.2101342 23.9512139,13.3028117 23.7509215,13.3028117 C23.5445595,13.3028117 23.3655101,13.2207693 23.2137734,13.0566844 C23.0620367,12.8925996 22.9315431,12.6814162 22.8222926,12.4231345 C22.7130422,12.1648527 22.6235175,11.8746656 22.5537186,11.5525731 C22.4839197,11.2304805 22.4292945,10.9114266 22.3898429,10.5954113 C22.3503914,10.279396 22.3230788,9.98313161 22.3079051,9.70661821 C22.2927314,9.43010481 22.2851446,9.20676706 22.2851446,9.03660497 L19.6995507,9.3921222 C19.7056201,9.64736534 19.7147243,9.910205 19.7268633,10.1806412 C19.7390022,10.4510774 19.7481064,10.713917 19.7541759,10.9691602 C19.7541759,11.2608666 19.7420369,11.5404186 19.7177591,11.8078162 C19.6934812,12.0752138 19.6418907,12.3122253 19.5629876,12.5188507 C19.4840845,12.7254761 19.3733167,12.8925996 19.2306841,13.0202211 C19.0880516,13.1478427 18.895346,13.2146921 18.6525672,13.2207693 C18.3612327,13.2329237 18.0790023,13.1189759 17.8058762,12.8789258 C17.5327501,12.6388757 17.2687282,12.3198218 17.0138105,11.921764 C16.7588927,11.5237063 16.5130792,11.0724729 16.2763699,10.5680638 C16.0396606,10.0636547 15.8120555,9.55012986 15.5935546,9.02748914 L13.0716901,10.3766315 C13.3144689,10.8081139 13.5496608,11.2395964 13.7772659,11.6710788 C14.004871,12.1025613 14.2081982,12.5264472 14.3872476,12.9427366 C14.5662969,13.359026 14.7104468,13.7661996 14.8196973,14.1642573 C14.9289477,14.5623151 14.983573,14.9436605 14.983573,15.3082936 C14.983573,15.8005482 14.9152914,16.2396272 14.7787284,16.6255305 C14.6421653,17.0114338 14.4540118,17.3502387 14.2142677,17.6419451 C13.9745237,17.9336516 13.690776,18.1812982 13.3630246,18.384885 C13.0352733,18.5884718 12.6817267,18.7555952 12.3023849,18.8862554 C11.923043,19.0169156 11.5254928,19.1111125 11.1097341,19.168846 C10.6939755,19.2265796 10.2766995,19.2554464 9.85790608,19.2554464 C9.30558437,19.2554464 8.78967948,19.1658074 8.3101914,18.9865295 C7.83070332,18.8072516 7.4134273,18.5641629 7.05836334,18.2572634 C6.70329938,17.9503639 6.42713853,17.5918081 6.22988077,17.1815959 C6.03262302,16.7713837 5.94309835,16.3353433 5.96130676,15.8734748 C5.96130676,15.4906101 6.00682778,15.0925523 6.09786982,14.6793015 C6.18891186,14.2660507 6.30878388,13.8543192 6.45748588,13.444107 C6.60618787,13.0338949 6.78068512,12.6282406 6.98097761,12.2271442 C7.1812701,11.8260479 7.39066679,11.4462218 7.60916769,11.0876659 L5.62445121,9.5653229 C5.36346402,9.96034205 5.10702894,10.4054982 4.85514596,10.9007915 C4.60326299,11.3960847 4.37565788,11.9172061 4.17233066,12.4641557 C3.96900344,13.0111053 3.80209303,13.5702093 3.67159944,14.1414678 C3.54110585,14.7127262 3.46675485,15.2718302 3.44854644,15.8187798 C3.44854644,16.7607486 3.60938738,17.6221942 3.93106925,18.4031166 C4.25275113,19.1840391 4.7003745,19.852533 5.27393935,20.4085984 C5.8475042,20.9646639 6.52880214,21.3961463 7.31783316,21.7030458 C8.10686417,22.0099453 8.96569409,22.163395 9.8943229,22.163395 Z" id="مـسـکـناکـــس" fill-rule="nonzero"></path>
                        <path d="M148.489139,41.5123695 C148.8571,41.5161678 149.178592,41.4677399 149.453615,41.367086 C149.728638,41.2664321 149.957191,41.1230477 150.139275,40.936933 C150.32136,40.7508182 150.457923,40.5257712 150.548965,40.2617921 C150.640007,39.9978129 150.685528,39.7024981 150.685528,39.3758477 C150.685528,39.1593468 150.665612,38.9371486 150.625781,38.7092529 C150.58595,38.4813572 150.535688,38.2582094 150.474993,38.0398094 C150.414298,37.8214094 150.346965,37.6134546 150.272993,37.415945 C150.199022,37.2184355 150.127895,37.0408668 150.059614,36.883239 C149.991332,36.7256111 149.930637,36.592672 149.87753,36.4844216 C149.859827,36.4483381 149.844021,36.4161584 149.830112,36.3878824 L149.769417,36.265072 L148.773645,36.789232 C148.83434,36.9107763 148.90926,37.0750511 148.998405,37.2820564 C149.08755,37.4890616 149.172902,37.713159 149.254461,37.9543485 C149.336019,38.1955381 149.406197,38.4414755 149.464995,38.6921607 C149.523793,38.942846 149.553192,39.176439 149.553192,39.3929399 C149.553192,39.5144842 149.54276,39.6284321 149.521897,39.7347834 C149.501033,39.8411347 149.464047,39.9360912 149.410939,40.0196529 L149.410939,40.0196529 C149.403352,40.0424425 149.383437,40.078526 149.351193,40.1279034 C149.318949,40.1772808 149.268686,40.2238095 149.200404,40.2674895 C149.132123,40.3111695 149.040133,40.3463034 148.924433,40.3728912 C148.808734,40.399479 148.663636,40.4013782 148.489139,40.3785886 C148.375336,40.3671938 148.279552,40.3301608 148.201787,40.2674895 C148.124022,40.2048182 148.061431,40.1250547 148.014013,40.028199 C147.966595,39.9313434 147.932454,39.8192947 147.911591,39.6920529 C147.890727,39.5648112 147.880295,39.4309225 147.880295,39.2903868 C147.880295,39.1346581 147.891675,38.9570894 147.914436,38.7576807 C147.937196,38.558272 147.962802,38.3702581 147.991252,38.193639 C148.019703,38.0170198 148.04436,37.8669885 148.065224,37.7435451 C148.086088,37.6201016 148.09652,37.5583798 148.09652,37.5583798 L148.09652,37.5583798 L147.004015,37.3589711 C146.981255,37.5146998 146.949011,37.6979659 146.907283,37.9087694 C146.865556,38.1195729 146.813396,38.3370233 146.750805,38.5611207 C146.688213,38.7852181 146.613293,39.0055173 146.526045,39.2220181 C146.438796,39.438519 146.335425,39.6322303 146.215933,39.8031521 C146.09644,39.9740738 145.959877,40.1127103 145.806243,40.2190616 C145.65261,40.3254129 145.479061,40.3785886 145.285597,40.3785886 C145.164207,40.3785886 145.063682,40.355799 144.98402,40.3102199 C144.904358,40.2646408 144.841767,40.2038686 144.796246,40.1279034 C144.750725,40.0519382 144.718481,39.9655277 144.699514,39.8686721 C144.680547,39.7718164 144.671063,39.6721121 144.671063,39.569559 C144.671063,39.4214268 144.686237,39.2609503 144.716584,39.0881294 C144.746931,38.9153086 144.782969,38.7462859 144.824696,38.5810616 C144.866424,38.4158372 144.9091,38.2610581 144.952724,38.1167242 C144.996349,37.9723903 145.033334,37.8546442 145.063682,37.7634859 L145.063682,37.7634859 L143.937037,37.5241955 C143.899102,37.7103103 143.85453,37.9087694 143.803319,38.1195729 C143.752107,38.3303764 143.688568,38.5392807 143.612699,38.7462859 C143.536831,38.9532912 143.445789,39.1517503 143.339573,39.3416634 C143.233357,39.5315764 143.11102,39.6996494 142.97256,39.8458825 C142.8341,39.9921155 142.674777,40.1089121 142.494589,40.1962721 C142.314402,40.2836321 142.112402,40.3273121 141.888591,40.3273121 C141.816516,40.3349086 141.748234,40.3538999 141.683746,40.384286 C141.619258,40.4146721 141.563305,40.4555034 141.515887,40.5067799 C141.46847,40.5580564 141.431484,40.6169295 141.40493,40.683399 C141.378376,40.7498686 141.365099,40.8191869 141.365099,40.8913538 C141.365099,40.967319 141.378376,41.0385364 141.40493,41.105006 C141.431484,41.1714756 141.46847,41.229399 141.515887,41.2787764 C141.563305,41.3281538 141.619258,41.3680356 141.683746,41.3984217 C141.748234,41.4288077 141.816516,41.4458999 141.888591,41.4496982 L141.888591,41.4496982 L141.979633,41.4496982 C142.381735,41.4421017 142.726936,41.3680356 143.015236,41.2274999 C143.303536,41.0869643 143.561488,40.8970512 143.789093,40.6577608 C143.849788,40.7982964 143.936088,40.9217399 144.047994,41.0280912 C144.1599,41.1344425 144.284134,41.2237017 144.420697,41.2958686 C144.55726,41.3680356 144.700462,41.4221608 144.850302,41.4582443 C145.000142,41.4943278 145.14524,41.5123695 145.285597,41.5123695 C145.608037,41.5123695 145.913408,41.4345051 146.201707,41.2787764 C146.490007,41.1230477 146.74796,40.9122443 146.975565,40.646366 C147.055226,40.7679103 147.151959,40.8809086 147.265761,40.9853608 C147.379564,41.089813 147.50285,41.1809712 147.635619,41.2588356 C147.768389,41.3366999 147.906849,41.3984217 148.050999,41.4440008 C148.195149,41.4895799 148.341195,41.5123695 148.489139,41.5123695 Z M141.899971,41.4440008 C142.055501,41.4440008 142.188271,41.3908251 142.29828,41.2844738 C142.408289,41.1781225 142.463294,41.0451834 142.463294,40.8856564 C142.463294,40.8096912 142.44812,40.7375243 142.417773,40.6691556 C142.387425,40.6007869 142.346646,40.5409643 142.295435,40.4896877 C142.244224,40.4384112 142.184477,40.3975799 142.116196,40.3671938 C142.047914,40.3368077 141.975839,40.3216147 141.899971,40.3216147 L141.899971,40.3216147 L141.84876,40.3216147 C141.374583,40.3178164 141.052142,40.2266582 140.881438,40.0481399 C140.79419,39.9645782 140.742978,39.8591764 140.727805,39.7319347 C140.712631,39.6046929 140.706941,39.4575103 140.710734,39.2903868 L140.710734,39.2903868 L140.711446,39.0952512 C140.71192,39.0487225 140.712631,38.986526 140.713579,38.9086616 C140.714528,38.8307973 140.715239,38.7424877 140.715713,38.6437329 L140.716424,37.4957085 C140.716424,37.1880494 140.714528,36.8670963 140.710734,36.5328494 C140.710734,36.1910059 140.706941,35.8406163 140.699354,35.4816807 C140.691767,35.122745 140.679439,34.7780528 140.662368,34.4476041 C140.645298,34.1171554 140.623486,33.8113954 140.596932,33.5303241 C140.570378,33.2492528 140.54003,33.0118615 140.50589,32.8181502 L140.50589,32.8181502 L139.390625,33.0232563 C139.424766,33.2017745 139.455113,33.4306197 139.481667,33.7097919 C139.508221,33.9889641 139.529085,34.2937745 139.544258,34.6242232 C139.559432,34.954672 139.570812,35.2965154 139.578399,35.6497537 C139.585986,36.002992 139.589779,36.3429363 139.589779,36.6695868 C139.593573,37.0038337 139.595469,37.3209885 139.595469,37.6210511 C139.595469,37.9211138 139.594521,38.1860425 139.592624,38.4158372 C139.590728,38.645632 139.587883,38.8279486 139.584089,38.9627868 C139.580296,39.0976251 139.578399,39.1669434 139.578399,39.1707416 L139.579031,39.3761642 C139.579874,39.444955 139.58156,39.5217642 139.584089,39.6065921 C139.587883,39.7338338 139.605901,39.8677225 139.638145,40.0082582 C139.670389,40.1487938 139.719704,40.2912286 139.786089,40.4355625 C139.852473,40.5798964 139.948257,40.7147347 140.07344,40.8400773 C140.278285,41.0451834 140.529599,41.1971138 140.827382,41.2958686 C141.125165,41.3946234 141.482695,41.4440008 141.899971,41.4440008 Z M134.197435,41.4427347 L134.337792,41.4411521 C134.489528,41.439253 134.648852,41.4345051 134.815762,41.4269086 C134.982673,41.4193121 135.14579,41.4069677 135.305113,41.3898756 C135.464437,41.3727834 135.59531,41.3490443 135.697732,41.3186582 C136.384341,41.1249469 136.862311,40.7223312 137.131644,40.1108112 C137.397183,39.4992912 137.353559,38.6484807 137.000771,37.5583798 C136.94387,37.372265 136.883175,37.1965955 136.818687,37.0313711 C136.754199,36.8661468 136.695401,36.7208633 136.642293,36.5955207 C136.589185,36.4701781 136.544613,36.3704737 136.508575,36.2964076 C136.472538,36.2223415 136.454519,36.1834094 136.454519,36.1796111 L136.454519,36.1796111 L135.441676,36.6809816 C135.506164,36.8215172 135.568756,36.963952 135.629451,37.1082859 C135.682558,37.2298303 135.736615,37.3618198 135.791619,37.5042546 C135.846624,37.6466894 135.89499,37.778679 135.936717,37.9002233 C136.058107,38.302839 136.134924,38.6551277 136.167168,38.9570894 C136.199412,39.2590512 136.177599,39.4916947 136.101731,39.6550199 C136.052417,39.7613712 135.978445,39.8525295 135.879816,39.9284947 C135.781187,40.0044599 135.667385,40.0680808 135.538408,40.1193573 C135.409432,40.1706338 135.268127,40.2105155 135.114494,40.2390025 C134.960861,40.2674895 134.804382,40.2893295 134.645058,40.3045225 C134.485735,40.3197156 134.328308,40.3282616 134.172778,40.3301608 C134.017248,40.3320599 133.873098,40.3311103 133.740328,40.3273121 L133.740328,40.3273121 L133.108724,40.3273121 C132.953194,40.3273121 132.821373,40.3804877 132.71326,40.486839 C132.605148,40.5931903 132.551092,40.7261295 132.551092,40.8856564 C132.551092,41.0451834 132.605148,41.1781225 132.71326,41.2844738 C132.821373,41.3908251 132.953194,41.4440008 133.108724,41.4440008 L133.108724,41.4440008 L134.197435,41.4427347 L134.197435,41.4427347 Z M134.371932,44.3325783 L135.293733,43.4096008 L134.360552,42.4752286 L133.438751,43.4039034 L134.371932,44.3325783 Z M136.704885,44.343973 L137.626685,43.4152982 L136.693504,42.4866234 L135.771704,43.4096008 L136.704885,44.343973 Z M125.262038,36.760745 L126.183839,35.8377676 L125.250658,34.9033954 L124.328857,35.8320702 L125.262038,36.760745 Z M127.594991,36.7721398 L128.516791,35.843465 L127.58361,34.9147902 L126.66181,35.8377676 L127.594991,36.7721398 Z M125.973304,41.461093 C128.131759,41.461093 129.711718,40.936933 130.71318,39.8886129 C130.800429,40.1279034 130.918025,40.3349086 131.065968,40.5096286 C131.540146,41.1211486 132.270379,41.432606 133.256667,41.4440008 L133.256667,41.4440008 L133.302188,41.4440008 C133.461512,41.4440008 133.59523,41.3908251 133.703342,41.2844738 C133.811455,41.1781225 133.865511,41.0451834 133.865511,40.8856564 C133.865511,40.7261295 133.811455,40.5922408 133.703342,40.4839903 C133.59523,40.3757399 133.461512,40.3216147 133.302188,40.3216147 C132.668688,40.3216147 132.217271,40.1525921 131.947938,39.8145468 C131.830342,39.6740112 131.75068,39.5144842 131.708953,39.335966 C131.667225,39.1574477 131.642568,38.986526 131.634981,38.8232007 C131.631188,38.667472 131.652051,38.477559 131.697572,38.2534616 C131.720333,38.143312 131.743093,38.0417085 131.765854,37.9486511 C131.788614,37.8555938 131.809478,37.7710824 131.828445,37.6951172 L131.828445,37.6951172 L130.747321,37.3988529 C130.698007,37.5697746 130.643002,37.7444946 130.582307,37.9230129 C130.521613,38.1015312 130.446693,38.2781503 130.357547,38.4528703 C130.268402,38.6275903 130.16029,38.7966129 130.03321,38.9599381 C129.906131,39.1232633 129.755342,39.2732947 129.580845,39.4100321 C129.190123,39.729086 128.700772,39.9617295 128.112792,40.1079625 C127.524812,40.2541955 126.81165,40.3273121 125.973304,40.3273121 C125.043917,40.3235138 124.284285,40.2238095 123.694408,40.028199 C123.104532,39.8325886 122.695791,39.5410721 122.468186,39.1536494 C122.37335,38.9941225 122.310759,38.8250999 122.280412,38.6465816 C122.250064,38.4680633 122.239632,38.2933433 122.249116,38.1224216 C122.258599,37.9514998 122.283257,37.7881746 122.323087,37.6324459 C122.362918,37.4767172 122.403698,37.3399798 122.445425,37.2222337 C122.487153,37.1044877 122.525087,37.0095311 122.559228,36.9373642 C122.593369,36.8651972 122.610439,36.8272146 122.610439,36.8234163 L122.610439,36.8234163 L121.626047,36.2821642 C121.61846,36.2935589 121.599493,36.3296424 121.569146,36.3904146 C121.538798,36.4511868 121.502761,36.5337989 121.461033,36.6382511 C121.419306,36.7427033 121.374733,36.8670963 121.327315,37.0114303 C121.279897,37.1557642 121.233428,37.3171903 121.187907,37.4957085 C121.142386,37.6666303 121.11109,37.8470477 121.09402,38.0369607 C121.07695,38.2268738 121.07695,38.4196355 121.09402,38.6152459 C121.11109,38.8108564 121.149025,39.0074164 121.207823,39.204926 C121.26662,39.4024355 121.351024,39.5942477 121.461033,39.7803625 C121.802441,40.3576982 122.351538,40.7802547 123.108325,41.0480321 C123.865112,41.3158095 124.820105,41.4534964 125.973304,41.461093 Z M113.551756,35.2680285 L114.473557,34.3450511 L113.540376,33.4106789 L112.618575,34.3393537 L113.551756,35.2680285 Z M115.884708,35.2794233 L116.806509,34.3507485 L115.873328,33.4220737 L114.951527,34.3450511 L115.884708,35.2794233 Z M113.183794,41.4427347 L113.324151,41.4411521 C113.475888,41.439253 113.635211,41.4345051 113.802122,41.4269086 C113.969032,41.4193121 114.132149,41.4069677 114.291473,41.3898756 C114.450796,41.3727834 114.581669,41.3490443 114.684091,41.3186582 C115.3707,41.1249469 115.848671,40.7223312 116.118004,40.1108112 C116.383543,39.4992912 116.339918,38.6484807 115.987131,37.5583798 C115.930229,37.372265 115.869535,37.1965955 115.805047,37.0313711 C115.740558,36.8661468 115.68176,36.7208633 115.628653,36.5955207 C115.575545,36.4701781 115.530972,36.3704737 115.494935,36.2964076 C115.458897,36.2223415 115.440878,36.1834094 115.440878,36.1796111 L115.440878,36.1796111 L114.428036,36.6809816 C114.492524,36.8215172 114.555115,36.963952 114.61581,37.1082859 C114.668918,37.2298303 114.722974,37.3618198 114.777979,37.5042546 C114.832983,37.6466894 114.881349,37.778679 114.923077,37.9002233 C115.044466,38.302839 115.121283,38.6551277 115.153527,38.9570894 C115.185771,39.2590512 115.163959,39.4916947 115.08809,39.6550199 C115.038776,39.7613712 114.964804,39.8525295 114.866175,39.9284947 C114.767547,40.0044599 114.653744,40.0680808 114.524768,40.1193573 C114.395792,40.1706338 114.254487,40.2105155 114.100853,40.2390025 C113.94722,40.2674895 113.790741,40.2893295 113.631418,40.3045225 C113.472094,40.3197156 113.314667,40.3282616 113.159137,40.3301608 C113.003607,40.3320599 112.859457,40.3311103 112.726688,40.3273121 L112.726688,40.3273121 L112.095083,40.3273121 C111.939553,40.3273121 111.807732,40.3804877 111.69962,40.486839 C111.591507,40.5931903 111.537451,40.7261295 111.537451,40.8856564 C111.537451,41.0451834 111.591507,41.1781225 111.69962,41.2844738 C111.807732,41.3908251 111.939553,41.4440008 112.095083,41.4440008 L112.095083,41.4440008 L113.183794,41.4427347 L113.183794,41.4427347 Z M105.847323,35.2794233 L106.774814,34.3507485 L105.841633,33.4163763 L104.914143,34.3450511 L105.847323,35.2794233 Z M103.850089,41.4496982 C104.37358,41.4496982 104.877157,41.4050686 105.360818,41.3158095 C105.844478,41.2265504 106.310121,41.1088043 106.757744,40.9625712 C107.205367,40.8163382 107.637817,40.6501643 108.055093,40.4640495 C108.472369,40.2779347 108.874471,40.0880216 109.2614,39.8943103 C109.356235,40.137399 109.493747,40.3548495 109.673934,40.5466616 C109.854122,40.7384738 110.069398,40.9008495 110.319764,41.0337886 C110.570129,41.1667277 110.854636,41.2683312 111.173283,41.3385991 C111.49193,41.4088669 111.839028,41.4440008 112.214576,41.4440008 L112.214576,41.4440008 L112.294238,41.4440008 C112.453561,41.4440008 112.587279,41.3917747 112.695392,41.2873225 C112.803504,41.1828704 112.85756,41.0508808 112.85756,40.8913538 C112.85756,40.8153886 112.843335,40.7432216 112.814885,40.6748529 C112.786434,40.6064843 112.746603,40.5466616 112.695392,40.4953851 C112.644181,40.4441086 112.584434,40.4032773 112.516153,40.3728912 C112.447871,40.3425051 112.3739,40.3273121 112.294238,40.3273121 L112.294238,40.3273121 L112.214576,40.3273121 C112.146295,40.3273121 112.056201,40.3244634 111.944295,40.318766 C111.832389,40.3130686 111.711948,40.2988251 111.582972,40.2760355 C111.453996,40.253246 111.322174,40.2219103 111.187508,40.1820286 C111.052842,40.1421469 110.924814,40.0870721 110.803424,40.0168042 C110.682035,39.9465364 110.574871,39.8610755 110.481932,39.7604216 C110.388994,39.6597677 110.32166,39.5372738 110.279933,39.3929399 C110.45443,39.3093781 110.627979,39.226766 110.800579,39.1451033 C110.97318,39.0634407 111.144832,38.986526 111.315536,38.914359 L111.315536,38.914359 L111.093621,37.837552 C110.862222,37.837552 110.629876,37.8128633 110.39658,37.7634859 C110.163285,37.7141085 109.930938,37.647639 109.69954,37.5640772 C109.468141,37.4805155 109.237691,37.3874581 109.008189,37.284905 C108.778687,37.182352 108.552031,37.0760007 108.328219,36.9658511 C108.123374,36.8708946 107.921375,36.7787868 107.72222,36.6895276 C107.523066,36.6002685 107.326757,36.520505 107.133292,36.4502372 C106.939828,36.3799694 106.74826,36.323945 106.558589,36.2821642 C106.368919,36.2403833 106.183041,36.2194928 106.000957,36.2194928 C105.640582,36.2194928 105.292536,36.3106511 104.956819,36.4929676 C104.621101,36.6752842 104.305299,36.9392633 104.009412,37.284905 C103.90699,37.4064494 103.816896,37.5260946 103.739131,37.6438407 C103.661366,37.7615868 103.594981,37.8679381 103.539977,37.9628946 C103.484972,38.0578512 103.443245,38.1338164 103.414794,38.1907903 C103.386343,38.2477642 103.372118,38.2781503 103.372118,38.2819485 L103.372118,38.2819485 L104.402031,38.7491346 C104.402031,38.7491346 104.42005,38.7140007 104.456087,38.6437329 C104.492125,38.5734651 104.542388,38.4861051 104.606876,38.3816529 C104.671364,38.2772007 104.751026,38.165152 104.845861,38.0455068 C104.940697,37.9258616 105.046912,37.8147625 105.164508,37.7122094 C105.282104,37.6096564 105.41108,37.5241955 105.551437,37.4558268 C105.691793,37.3874581 105.841633,37.3532737 106.000957,37.3532737 C106.122346,37.3532737 106.254168,37.3713155 106.396421,37.407399 C106.538674,37.4434824 106.688514,37.4909607 106.845941,37.5498337 C107.003368,37.6087068 107.166485,37.6761259 107.335292,37.7520911 C107.504099,37.8280564 107.675751,37.9078198 107.850248,37.9913816 C108.081647,38.0977329 108.317787,38.2059833 108.558669,38.3161329 C108.799551,38.4262825 109.048969,38.5269364 109.306921,38.6180946 L109.306921,38.6180946 L109.204499,38.6693712 C108.79481,38.870679 108.381327,39.0710373 107.964051,39.270446 C107.546775,39.4698547 107.118119,39.6474234 106.678082,39.8031521 C106.238046,39.9588808 105.783784,40.0851729 105.315297,40.1820286 C104.846809,40.2788842 104.358407,40.3273121 103.850089,40.3273121 L103.850089,40.3273121 L102.808795,40.3273121 C102.729134,40.3273121 102.655162,40.3425051 102.58688,40.3728912 C102.518599,40.4032773 102.458853,40.4441086 102.407641,40.4953851 C102.35643,40.5466616 102.316599,40.6064843 102.288149,40.6748529 C102.259698,40.7432216 102.245473,40.8153886 102.245473,40.8913538 C102.245473,41.0508808 102.299529,41.1828704 102.407641,41.2873225 C102.515754,41.3917747 102.649472,41.4440008 102.808795,41.4440008 L102.808795,41.4440008 L103.850089,41.4496982 Z M97.4202447,41.5522512 C97.7768261,41.5522512 98.1571162,41.5332599 98.5611153,41.4952773 C98.9651143,41.4572947 99.3662683,41.3832286 99.7645773,41.2730791 C99.916314,41.3414477 100.118314,41.3879764 100.370576,41.4126651 C100.622838,41.4373538 100.957607,41.4496982 101.374883,41.4496982 L101.374883,41.4496982 L102.808795,41.4440008 C102.968119,41.4440008 103.102785,41.3917747 103.212794,41.2873225 C103.322804,41.1828704 103.377808,41.0508808 103.377808,40.8913538 C103.377808,40.7318269 103.322804,40.5979382 103.212794,40.4896877 C103.102785,40.3814373 102.968119,40.3273121 102.808795,40.3273121 L102.808795,40.3273121 L101.494376,40.3273121 C101.904065,39.9095034 102.13167,39.3910407 102.177191,38.7719242 C102.196158,38.4870546 102.153482,38.2097816 102.049163,37.9401051 C101.944844,37.6704285 101.780779,37.4235416 101.556967,37.1994442 C101.253494,36.876592 100.895016,36.6562929 100.481533,36.5385468 C100.068051,36.4208007 99.6185306,36.4037085 99.1329731,36.4872702 C98.7194905,36.5632355 98.3145431,36.7047207 97.9181309,36.9117259 C97.5217187,37.1187311 97.1547055,37.3836598 96.8170912,37.706512 C96.6008664,37.9192146 96.404557,38.1376146 96.228163,38.361712 C96.0517691,38.5858094 95.8971873,38.8004112 95.7644177,39.0055173 C95.631648,39.2106234 95.5197422,39.3986373 95.4287001,39.569559 C95.3376581,39.7404808 95.2674799,39.8810164 95.2181654,39.991166 L95.2181654,39.991166 L95.1840247,39.9284947 C95.0853958,39.8031521 95.0142692,39.6578686 94.9706449,39.4926442 C94.9270206,39.3274199 94.901415,39.1631451 94.8938282,38.9998199 C94.8862413,38.8364946 94.8890864,38.6836146 94.9023634,38.5411799 C94.9156403,38.3987451 94.9298656,38.2895451 94.9450393,38.2135799 L94.9450393,38.2135799 C94.960213,38.1262198 94.976335,38.0436077 94.9934054,37.9657433 C95.0104758,37.887879 95.0341846,37.8147625 95.064532,37.7463938 L95.064532,37.7463938 L93.9890979,37.415945 C93.9473703,37.5564807 93.9103845,37.6989155 93.8781404,37.8432494 C93.8458964,37.9875833 93.8146007,38.1319172 93.7842533,38.2762512 C93.7083849,38.6104981 93.6306199,38.9039138 93.5509581,39.1564981 C93.4712963,39.4090825 93.3650806,39.6208355 93.2323109,39.7917573 C93.0957479,39.9702755 92.9421144,40.1032147 92.7714106,40.1905747 C92.6120871,40.2703382 92.3067169,40.3159173 91.8553001,40.3273121 L91.8553001,40.3273121 L91.804089,40.3273121 C91.6485588,40.3273121 91.5167375,40.3814373 91.4086251,40.4896877 C91.3005127,40.5979382 91.2464565,40.7318269 91.2464565,40.8913538 C91.2464565,41.0508808 91.3005127,41.1828704 91.4086251,41.2873225 C91.5167375,41.3917747 91.6485588,41.4440008 91.804089,41.4440008 C92.384482,41.4440008 92.8624527,41.3547417 93.2380011,41.1762234 C93.6059627,41.0128982 93.9113328,40.7698095 94.1541116,40.4469573 C94.1920458,40.5191243 94.2375668,40.5760982 94.2906747,40.617879 C94.4006838,40.7546164 94.5211248,40.8761608 94.6519977,40.9825121 C94.7828707,41.0888634 94.9317623,41.1781225 95.0986727,41.2502895 C95.2200621,41.3072634 95.3537801,41.3528425 95.4998267,41.3870269 C95.6458733,41.4212112 95.7985584,41.4477991 95.957882,41.4667904 C96.0868582,41.4781851 96.2774775,41.4952773 96.5297398,41.5180669 C96.7820021,41.5408564 97.0788371,41.5522512 97.4202447,41.5522512 Z M97.3306252,40.4284408 L96.9593444,40.421319 C96.7165657,40.4118234 96.492754,40.3956808 96.2879094,40.3728912 C96.3372238,40.2779347 96.3998152,40.1582895 96.4756836,40.0139555 C96.551552,39.8696216 96.6435424,39.7148425 96.7516548,39.5496181 C96.8597672,39.3843938 96.9840016,39.2125225 97.1243581,39.0340042 C97.2647146,38.855486 97.4221415,38.6845642 97.5966387,38.521239 C97.8583846,38.2705538 98.1381492,38.0663972 98.4359325,37.9087694 C98.7337158,37.7511416 99.0343442,37.647639 99.3378177,37.5982616 C99.4364466,37.5830685 99.5455073,37.5726233 99.665,37.5669259 C99.7844927,37.5612285 99.9068304,37.5697746 100.032013,37.5925642 C100.157196,37.6153537 100.282379,37.6571346 100.407562,37.7179068 C100.532744,37.778679 100.65034,37.866039 100.76035,37.9799868 C100.790697,38.0103729 100.824838,38.0493051 100.862772,38.0967833 C100.900706,38.1442616 100.934847,38.1983868 100.965194,38.259159 C100.995541,38.3199312 101.020199,38.3873503 101.039166,38.4614164 C101.058133,38.5354825 101.06572,38.6142964 101.061926,38.6978581 C101.039166,39.0852807 100.868462,39.4062338 100.549815,39.6607173 C100.386698,39.7936564 100.196079,39.9066547 99.977957,39.9997121 C99.7598355,40.0927695 99.5265403,40.1687347 99.2780714,40.2276077 C99.0296025,40.2864808 98.7725984,40.3311103 98.5070591,40.3614964 C98.2415198,40.3918825 97.9778772,40.4118234 97.7161314,40.421319 C97.4543855,40.4308147 97.2021232,40.4308147 96.9593444,40.421319 L97.3306252,40.4284408 Z M86.4212284,41.5522512 C86.7778097,41.5522512 87.1580999,41.5332599 87.562099,41.4952773 C87.966098,41.4572947 88.367252,41.3832286 88.7655609,41.2730791 C88.9172976,41.3414477 89.1192972,41.3879764 89.3715595,41.4126651 C89.6238218,41.4373538 89.958591,41.4496982 90.375867,41.4496982 L90.375867,41.4496982 L91.8097791,41.4440008 C91.9691027,41.4440008 92.103769,41.3917747 92.2137781,41.2873225 C92.3237873,41.1828704 92.3787918,41.0508808 92.3787918,40.8913538 C92.3787918,40.7318269 92.3237873,40.5979382 92.2137781,40.4896877 C92.103769,40.3814373 91.9691027,40.3273121 91.8097791,40.3273121 L91.8097791,40.3273121 L90.4953596,40.3273121 C90.9050488,39.9095034 91.1326539,39.3910407 91.1781749,38.7719242 C91.197142,38.4870546 91.1544661,38.2097816 91.0501471,37.9401051 C90.9458281,37.6704285 90.7817627,37.4235416 90.5579511,37.1994442 C90.2544776,36.876592 89.8959996,36.6562929 89.482517,36.5385468 C89.0690344,36.4208007 88.6195143,36.4037085 88.1339568,36.4872702 C87.7204742,36.5632355 87.3155268,36.7047207 86.9191146,36.9117259 C86.5227023,37.1187311 86.1556891,37.3836598 85.8180749,37.706512 C85.6018501,37.9192146 85.4055407,38.1376146 85.2291467,38.361712 C85.0527528,38.5858094 84.898171,38.8004112 84.7654013,39.0055173 C84.6326317,39.2106234 84.5207258,39.3986373 84.4296838,39.569559 C84.3386418,39.7404808 84.2684635,39.8810164 84.2191491,39.991166 L84.2191491,39.991166 L84.1850083,39.9284947 C84.0863794,39.8031521 84.0152528,39.6578686 83.9716285,39.4926442 C83.9280042,39.3274199 83.9023987,39.1631451 83.8948118,38.9998199 C83.887225,38.8364946 83.89007,38.6836146 83.903347,38.5411799 C83.916624,38.3987451 83.9308493,38.2895451 83.946023,38.2135799 L83.946023,38.2135799 C83.9611966,38.1262198 83.9773187,38.0436077 83.994389,37.9657433 C84.0114594,37.887879 84.0351683,37.8147625 84.0655156,37.7463938 L84.0655156,37.7463938 L82.9900816,37.415945 C82.948354,37.5564807 82.9113681,37.6989155 82.8791241,37.8432494 C82.84688,37.9875833 82.8155843,38.1319172 82.785237,38.2762512 C82.7093686,38.6104981 82.6316035,38.9039138 82.5519417,39.1564981 C82.47228,39.4090825 82.3660642,39.6208355 82.2332946,39.7917573 C82.0967315,39.9702755 81.9430981,40.1032147 81.7723943,40.1905747 C81.6130707,40.2703382 81.3077005,40.3159173 80.8562838,40.3273121 L80.8562838,40.3273121 L80.8050726,40.3273121 C80.6495425,40.3273121 80.5177212,40.3814373 80.4096088,40.4896877 C80.3014963,40.5979382 80.2474401,40.7318269 80.2474401,40.8913538 C80.2474401,41.0508808 80.3014963,41.1828704 80.4096088,41.2873225 C80.5177212,41.3917747 80.6495425,41.4440008 80.8050726,41.4440008 C81.3854656,41.4440008 81.8634363,41.3547417 82.2389847,41.1762234 C82.6069463,41.0128982 82.9123165,40.7698095 83.1550953,40.4469573 C83.1930294,40.5191243 83.2385505,40.5760982 83.2916583,40.617879 C83.4016674,40.7546164 83.5221085,40.8761608 83.6529814,40.9825121 C83.7838543,41.0888634 83.932746,41.1781225 84.0996564,41.2502895 C84.2210458,41.3072634 84.3547638,41.3528425 84.5008104,41.3870269 C84.646857,41.4212112 84.7995421,41.4477991 84.9588656,41.4667904 C85.0878419,41.4781851 85.2784611,41.4952773 85.5307235,41.5180669 C85.7829858,41.5408564 86.0798208,41.5522512 86.4212284,41.5522512 Z M86.3316089,40.4284408 L85.9603281,40.421319 C85.7175493,40.4118234 85.4937376,40.3956808 85.288893,40.3728912 C85.3382075,40.2779347 85.4007989,40.1582895 85.4766672,40.0139555 C85.5525356,39.8696216 85.644526,39.7148425 85.7526384,39.5496181 C85.8607508,39.3843938 85.9849853,39.2125225 86.1253418,39.0340042 C86.2656983,38.855486 86.4231251,38.6845642 86.5976224,38.521239 C86.8593682,38.2705538 87.1391328,38.0663972 87.4369162,37.9087694 C87.7346995,37.7511416 88.0353279,37.647639 88.3388013,37.5982616 C88.4374302,37.5830685 88.546491,37.5726233 88.6659837,37.5669259 C88.7854764,37.5612285 88.9078141,37.5697746 89.0329969,37.5925642 C89.1581797,37.6153537 89.2833625,37.6571346 89.4085453,37.7179068 C89.5337281,37.778679 89.6513241,37.866039 89.7613332,37.9799868 C89.7916806,38.0103729 89.8258213,38.0493051 89.8637555,38.0967833 C89.9016897,38.1442616 89.9358305,38.1983868 89.9661778,38.259159 C89.9965251,38.3199312 90.0211824,38.3873503 90.0401495,38.4614164 C90.0591165,38.5354825 90.0667034,38.6142964 90.06291,38.6978581 C90.0401495,39.0852807 89.8694456,39.4062338 89.5507985,39.6607173 C89.3876815,39.7936564 89.1970622,39.9066547 88.9789407,39.9997121 C88.7608191,40.0927695 88.5275239,40.1687347 88.279055,40.2276077 C88.0305861,40.2864808 87.773582,40.3311103 87.5080427,40.3614964 C87.2425035,40.3918825 86.9788609,40.4118234 86.717115,40.421319 C86.4553692,40.4308147 86.2031069,40.4308147 85.9603281,40.421319 L86.3316089,40.4284408 Z M75.9400137,45.1587 C76.1903793,45.1587 76.4710922,45.1416078 76.7821525,45.1074235 C77.0932128,45.0732391 77.4071182,45.0162652 77.7238686,44.9365017 C78.040619,44.8567383 78.3488343,44.7532357 78.6485143,44.6259939 C78.9481944,44.4987522 79.2156304,44.3420739 79.4508223,44.1559591 C79.6860142,43.9698443 79.8756851,43.7514443 80.019835,43.5007591 C80.1639849,43.2500739 80.2379566,42.9633052 80.24175,42.640453 C80.24175,42.5606895 80.2341632,42.4733295 80.2189895,42.378373 C80.2038158,42.2834165 80.1734685,42.1846617 80.1279475,42.0821086 C80.0824264,41.9795556 80.0188867,41.8741538 79.9373282,41.7659034 C79.8557697,41.657653 79.7505023,41.5503521 79.6215261,41.4440008 L79.6215261,41.4440008 L80.9814666,41.4440008 C81.1369967,41.4440008 81.2697664,41.3908251 81.3797755,41.2844738 C81.4897846,41.1781225 81.5447892,41.0451834 81.5447892,40.8856564 C81.5447892,40.7261295 81.4897846,40.5931903 81.3797755,40.486839 C81.2697664,40.3804877 81.1369967,40.3273121 80.9814666,40.3273121 L80.9814666,40.3273121 L76.6000684,40.3216147 L76.5147165,41.4269086 L76.6398993,41.4496982 C76.700594,41.461093 76.7783591,41.4781851 76.8731946,41.5009747 C76.96803,41.5237643 77.072349,41.5494025 77.1861516,41.5778895 C77.2999541,41.6063764 77.4222919,41.6405608 77.5531648,41.6804425 C77.6840377,41.7203243 77.815859,41.7630547 77.9486286,41.8086338 C78.1648535,41.8883973 78.3469376,41.9681608 78.4948809,42.0479243 C78.6428242,42.1276878 78.7632652,42.203653 78.856204,42.2758199 C78.9491427,42.3479869 79.0164759,42.415406 79.0582035,42.4780773 C79.0999311,42.5407486 79.1207949,42.5948739 79.1207949,42.640453 C79.1207949,42.8265678 79.0582035,42.989893 78.9330207,43.1304287 C78.8078379,43.2709643 78.6456693,43.3925087 78.4465148,43.4950617 C78.2473603,43.5976148 78.0254454,43.6840252 77.7807699,43.754293 C77.5360944,43.8245608 77.2961607,43.8805852 77.0609688,43.9223661 C76.8257768,43.9641469 76.6076553,43.9935835 76.4066041,44.0106756 C76.2055529,44.0277678 76.0500228,44.0363139 75.9400137,44.0363139 C75.7503427,44.0363139 75.5331695,44.0325156 75.2884941,44.0249191 C75.0438186,44.0173226 74.7972464,43.9869365 74.5487775,43.9337608 C74.3003086,43.8805852 74.0613232,43.7941748 73.8318214,43.6745295 C73.6023196,43.5548843 73.4098037,43.383013 73.2542735,43.1589156 C72.9470066,42.6917295 72.8379458,42.0384286 72.9270912,41.199013 C73.0162365,40.3595973 73.3035879,39.3435625 73.7891455,38.1509085 L73.7891455,38.1509085 L72.7478522,37.7293016 C72.4481721,38.4547694 72.2186703,39.1251625 72.0593467,39.7404808 C71.9000232,40.355799 71.8070844,40.923639 71.7805305,41.4440008 C71.7350095,42.4011626 71.9170936,43.1798061 72.3267827,43.7799313 C72.50128,44.0761956 72.7250917,44.3145365 72.9982178,44.4949539 C73.2713439,44.6753713 73.5710239,44.8149574 73.8972579,44.9137122 C74.2234919,45.012467 74.5630028,45.077987 74.9157907,45.1102722 C75.2685786,45.1425574 75.6099863,45.1587 75.9400137,45.1587 Z M62.0788632,35.0515276 L63.006354,34.1228528 L62.0731731,33.1884806 L61.1456823,34.1171554 L62.0788632,35.0515276 Z M59.8312629,41.4440008 C60.404069,41.4440008 60.9711851,41.3908251 61.532611,41.2844738 C62.0940369,41.1781225 62.6374441,41.0404356 63.1628325,40.871413 C63.6882209,40.7023903 64.1908488,40.5134269 64.6707163,40.3045225 C65.1505837,40.0956182 65.5991554,39.8867138 66.0164314,39.6778094 C66.2971444,39.5372738 66.5693221,39.4033851 66.8329647,39.2761434 C67.0966073,39.1489016 67.3611982,39.030206 67.6267375,38.9200564 L67.6267375,38.9200564 L67.4105126,37.837552 C67.1753207,37.837552 66.9420255,37.8128633 66.7106269,37.7634859 C66.4792284,37.7141085 66.2478299,37.6485885 66.0164314,37.5669259 C65.7850329,37.4852633 65.5545827,37.3931555 65.3250809,37.2906024 C65.0955791,37.1880494 64.8689224,37.0835972 64.6451107,36.9772459 C64.4402661,36.8822894 64.2382666,36.789232 64.0391121,36.6980737 C63.8399577,36.6069155 63.6436483,36.5262024 63.4501839,36.4559346 C63.2567196,36.3856668 63.065152,36.3296424 62.8754811,36.2878615 C62.6858101,36.2460807 62.4999326,36.2251902 62.3178486,36.2251902 C61.9536804,36.2251902 61.6037376,36.3144494 61.26802,36.4929676 C60.9323025,36.6714859 60.6183972,36.9392633 60.326304,37.2962998 C60.2238817,37.4178442 60.1328396,37.5365398 60.0531778,37.6523868 C59.9735161,37.7682338 59.9071312,37.8726859 59.8540234,37.9657433 C59.8009155,38.0588007 59.7601363,38.1347659 59.7316856,38.193639 C59.703235,38.252512 59.687113,38.2857468 59.6833196,38.2933433 L59.6833196,38.2933433 L60.7075425,38.754832 C60.7075425,38.7510338 60.7265096,38.7140007 60.7644438,38.6437329 C60.802378,38.5734651 60.8545375,38.4861051 60.9209223,38.3816529 C60.9873071,38.2772007 61.0679172,38.165152 61.1627527,38.0455068 C61.2575881,37.9258616 61.3647522,37.8138129 61.4842449,37.7093607 C61.6037376,37.6049085 61.7336621,37.5184981 61.8740186,37.4501294 C62.0143751,37.3817607 62.1623184,37.3475764 62.3178486,37.3475764 C62.4354445,37.3475764 62.5653691,37.3656181 62.7076223,37.4017016 C62.8498755,37.4377851 62.9987671,37.4862129 63.1542973,37.5469851 C63.3098274,37.6077572 63.4719961,37.6770755 63.6408032,37.7549398 C63.8096103,37.8328042 63.9831592,37.9135172 64.1614499,37.997079 C64.3928484,38.1072285 64.6289887,38.215479 64.8698707,38.3218303 C65.1107528,38.4281816 65.36017,38.5269364 65.6181225,38.6180946 C65.1856728,38.8345955 64.7361527,39.045399 64.2695623,39.2505051 C63.8029718,39.4556112 63.3250011,39.6379277 62.8356502,39.7974547 C62.3462992,39.9569816 61.8503098,40.0851729 61.3476818,40.1820286 C60.8450539,40.2788842 60.3395809,40.3273121 59.8312629,40.3273121 L59.8312629,40.3273121 L58.7046176,40.3273121 C58.5452941,40.3273121 58.4106277,40.3804877 58.3006186,40.486839 C58.1906095,40.5931903 58.1356049,40.7261295 58.1356049,40.8856564 C58.1356049,40.9616217 58.1507786,41.0337886 58.1811259,41.1021573 C58.2114733,41.170526 58.2522525,41.2303486 58.3034637,41.2816251 C58.3546748,41.3329017 58.4144211,41.3727834 58.4827027,41.4012704 C58.5509842,41.4297573 58.6249559,41.4440008 58.7046176,41.4440008 L58.7046176,41.4440008 L59.8312629,41.4440008 Z M58.7103078,41.4440008 C58.8658379,41.4440008 58.9986076,41.3908251 59.1086167,41.2844738 C59.2186258,41.1781225 59.2736304,41.0451834 59.2736304,40.8856564 C59.2736304,40.7261295 59.2186258,40.5931903 59.1086167,40.486839 C58.9986076,40.3804877 58.8658379,40.3273121 58.7103078,40.3273121 C58.4523553,40.3273121 58.2475107,40.2978756 58.095774,40.2390025 C57.9440373,40.1801295 57.8226479,40.0984668 57.7316058,39.9940147 C57.6405638,39.8895625 57.5656438,39.7623208 57.5068458,39.6122894 C57.4480478,39.4622581 57.3807147,39.2960842 57.3048463,39.1137677 C57.0127531,38.4186859 56.7585941,37.8100146 56.5423692,37.2877537 C56.3261444,36.7654929 56.145957,36.3258442 56.0018071,35.9688076 C55.8311033,35.5547972 55.6850567,35.1996598 55.5636673,34.9033954 L55.5636673,34.9033954 L54.5280641,35.3363972 L56.3261444,39.6664147 C56.2616563,39.7309851 56.1677692,39.8078999 56.0444831,39.897159 C55.921197,39.9864182 55.7628217,40.0690303 55.5693574,40.1449955 C55.3645128,40.224759 55.1530298,40.275086 54.9349082,40.2959764 C54.7167867,40.3168669 54.4948717,40.3026234 54.2691633,40.253246 C54.0434549,40.2038686 53.8149015,40.1165086 53.5835029,39.991166 C53.3521044,39.8658234 53.1226026,39.6968008 52.8949975,39.4840981 L52.8949975,39.4840981 L52.2520131,40.3899834 C52.5706603,40.7204321 52.9224998,40.9787138 53.3075318,41.1648286 C53.6925637,41.3509434 54.1069947,41.4440008 54.5508246,41.4440008 C54.8391244,41.4440008 55.0970768,41.4240599 55.3246819,41.3841782 C55.552287,41.3442964 55.7723053,41.2825747 55.9847367,41.199013 C56.1744076,41.1230477 56.3422664,41.039486 56.488313,40.9483277 C56.6343596,40.8571695 56.7642842,40.7698095 56.8780867,40.6862477 C56.9577485,40.7888008 57.052584,40.886606 57.1625931,40.9796634 C57.2726022,41.0727208 57.4006301,41.1534338 57.5466767,41.2218025 C57.6927233,41.2901712 57.8615304,41.3442964 58.053098,41.3841782 C58.2446657,41.4240599 58.4637356,41.4440008 58.7103078,41.4440008 Z M44.9060586,41.4440008 C45.7747514,41.4440008 46.4917074,41.1515347 47.0569268,40.5666025 C47.068307,40.559006 47.0872741,40.5419138 47.113828,40.515326 C47.5159304,40.8115903 47.9009623,41.0318895 48.2689239,41.1762234 C48.8037959,41.3927243 49.2836633,41.4440008 49.7085262,41.330053 C49.9475115,41.2654825 50.1580462,41.1448877 50.3401303,40.9682686 C50.5222144,40.7916495 50.668261,40.5666025 50.7782701,40.2931277 C50.8617253,40.0690303 50.9167299,39.831639 50.9432838,39.5809538 C50.9698377,39.3302686 50.9641476,39.073886 50.9262134,38.811806 C50.8655187,38.2610581 50.6834347,37.8033677 50.3799612,37.4387346 C50.0006194,36.979145 49.5245454,36.7493503 48.9517392,36.7493503 C48.4661817,36.7493503 48.0526991,36.9582546 47.7112914,37.3760633 C47.5823152,37.531792 47.4685126,37.7027138 47.3698838,37.8888285 C47.2712549,38.0749433 47.172626,38.2705538 47.0739971,38.4756599 C46.9564012,38.711152 46.8369085,38.9399973 46.7155191,39.1621955 C46.5941297,39.3843938 46.4518765,39.5819034 46.2887596,39.7547242 C46.1256426,39.9275451 45.9340749,40.0661816 45.7140567,40.1706338 C45.4940384,40.275086 45.2247057,40.3273121 44.9060586,40.3273121 L44.9060586,40.3273121 C44.746735,40.3349086 44.6139654,40.3909329 44.5077497,40.4953851 C44.401534,40.5998373 44.3484261,40.7299277 44.3484261,40.8856564 C44.3484261,41.0413851 44.401534,41.1733747 44.5077497,41.2816251 C44.6139654,41.3898756 44.7448383,41.4440008 44.9003685,41.4440008 L44.9003685,41.4440008 L44.9060586,41.4440008 Z M49.4240198,40.2361538 C49.2343489,40.2893295 48.9972602,40.2589434 48.7127538,40.1449955 C48.4282475,40.0310477 48.1133938,39.8468321 47.7681927,39.5923486 L47.7681927,39.5923486 L48.0754596,38.9713329 C48.170295,38.7852181 48.2546986,38.623792 48.3286702,38.4870546 C48.4026419,38.3503172 48.4728201,38.2363694 48.539205,38.1452112 C48.6055898,38.0540529 48.6719746,37.9866338 48.7383594,37.9429538 C48.8047442,37.8992738 48.8758708,37.8774338 48.9517392,37.8774338 C49.0655418,37.8774338 49.1660673,37.9002233 49.253316,37.9458025 C49.3405646,37.9913816 49.4164329,38.0493051 49.4809211,38.1195729 C49.5454092,38.1898407 49.6004137,38.2677051 49.6459347,38.3531659 C49.6914558,38.4386268 49.7284416,38.521239 49.7568922,38.6010025 C49.7853429,38.6807659 49.807155,38.7529329 49.8223287,38.8175033 C49.8375024,38.8820738 49.8469859,38.9276529 49.8507793,38.9542407 C49.8735398,39.1251625 49.8763849,39.2846894 49.8593145,39.4328216 C49.8422441,39.5809538 49.8118968,39.7119938 49.7682725,39.8259416 C49.7246482,39.9398895 49.6724887,40.0329468 49.611794,40.1051138 C49.5510993,40.1772808 49.4885079,40.2209608 49.4240198,40.2361538 Z M44.9117487,41.4440008 C45.0672789,41.4440008 45.2000485,41.3908251 45.3100576,41.2844738 C45.4200668,41.1781225 45.4750713,41.0451834 45.4750713,40.8856564 C45.4750713,40.8096912 45.4598977,40.7375243 45.4295503,40.6691556 C45.399203,40.6007869 45.3584237,40.5409643 45.3072126,40.4896877 C45.2560014,40.4384112 45.1962551,40.3975799 45.1279736,40.3671938 C45.059692,40.3368077 44.9876171,40.3216147 44.9117487,40.3216147 L44.9117487,40.3216147 L44.8605376,40.3216147 C44.3863603,40.3178164 44.0639197,40.2266582 43.8932159,40.0481399 C43.8059673,39.9645782 43.7547561,39.8591764 43.7395825,39.7319347 C43.7244088,39.6046929 43.7187187,39.4575103 43.7225121,39.2903868 L43.7225121,39.1878338 C43.7225121,39.1574477 43.7234604,39.0643903 43.7253571,38.9086616 C43.7272539,38.7529329 43.7282022,38.5554233 43.7282022,38.3161329 L43.7282022,37.4957085 C43.7282022,37.1880494 43.7263055,36.8670963 43.7225121,36.5328494 C43.7225121,36.1910059 43.7187187,35.8406163 43.7111318,35.4816807 C43.703545,35.122745 43.6912164,34.7780528 43.674146,34.4476041 C43.6570756,34.1171554 43.6352635,33.8113954 43.6087095,33.5303241 C43.5821556,33.2492528 43.5518083,33.0118615 43.5176675,32.8181502 L43.5176675,32.8181502 L42.4024025,33.0232563 C42.4365433,33.2017745 42.4668906,33.4306197 42.4934446,33.7097919 C42.5199985,33.9889641 42.5408623,34.2937745 42.556036,34.6242232 C42.5712096,34.954672 42.5825899,35.2965154 42.5901767,35.6497537 C42.5977636,36.002992 42.601557,36.3429363 42.601557,36.6695868 C42.6053504,37.0038337 42.6072471,37.3209885 42.6072471,37.6210511 L42.606931,37.9094025 C42.6065095,38.0938291 42.6056665,38.2626407 42.604402,38.4158372 C42.6025053,38.645632 42.5996603,38.8279486 42.5958668,38.9627868 C42.5920734,39.0976251 42.5901767,39.1669434 42.5901767,39.1707416 L42.5901767,39.1707416 L42.5901767,39.278992 C42.5901767,39.3701503 42.5920734,39.4793503 42.5958668,39.6065921 C42.5996603,39.7338338 42.617679,39.8677225 42.6499231,40.0082582 C42.6821671,40.1487938 42.7314816,40.2912286 42.7978664,40.4355625 C42.8642512,40.5798964 42.960035,40.7147347 43.0852178,40.8400773 C43.2900624,41.0451834 43.5413764,41.1971138 43.8391597,41.2958686 C44.136943,41.3946234 44.4944727,41.4440008 44.9117487,41.4440008 Z M34.5500266,36.7322581 L35.4718273,35.8092807 L34.5386464,34.8749085 L33.6168457,35.8035833 L34.5500266,36.7322581 Z M36.8829789,36.7436529 L37.8047795,35.8149781 L36.8715986,34.8863033 L35.949798,35.8092807 L36.8829789,36.7436529 Z M35.5514891,41.4440008 C35.7980613,41.4477991 36.0598071,41.439253 36.3367267,41.4183625 C36.6136462,41.3974721 36.8962559,41.3651869 37.1845557,41.3215069 C37.4728554,41.2778269 37.7592585,41.2256008 38.0437649,41.1648286 C38.3282713,41.1040564 38.6023457,41.0337886 38.8659883,40.9540251 C39.1296309,40.8742617 39.3752547,40.7878512 39.6028598,40.6947938 C39.8304649,40.6017364 40.0296194,40.5020321 40.2003232,40.3956808 C40.3786139,40.2817329 40.5161253,40.1687347 40.6128574,40.056686 C40.7095896,39.9446373 40.7759744,39.8249921 40.8120119,39.6977503 C40.8480494,39.5705086 40.8594296,39.4309225 40.8461527,39.278992 C40.8328757,39.1270616 40.8034767,38.9542407 40.7579557,38.7605294 C40.7124347,38.5668181 40.6555334,38.3731068 40.5872519,38.1793955 C40.5189703,37.9856842 40.4449987,37.800519 40.3653369,37.6238998 C40.2856751,37.4472807 40.205065,37.2830059 40.1235065,37.1310755 C40.041948,36.979145 39.9689247,36.8462059 39.9044366,36.7322581 C39.8399485,36.6183102 39.7849439,36.527152 39.7394229,36.4587833 C39.6939019,36.3904146 39.6692446,36.352432 39.6654512,36.3448355 L39.6654512,36.3448355 L38.7208901,36.9601537 C38.7246835,36.963952 38.7512374,37.0047833 38.8005518,37.0826477 C38.8498663,37.160512 38.9124577,37.263065 38.9883261,37.3903068 C39.0641944,37.5175485 39.1457529,37.6637816 39.2330015,37.8290059 C39.3202502,37.9942303 39.4037054,38.1680007 39.4833671,38.3503172 C39.5630289,38.5326338 39.6313105,38.717799 39.6882117,38.9058129 C39.745113,39.0938268 39.7811505,39.2732947 39.7963241,39.4442164 C39.477677,39.6227347 39.1334243,39.7680181 38.763566,39.8800668 C38.3937077,39.9921155 38.0219527,40.0804251 37.648301,40.1449955 C37.2746493,40.209566 36.9076361,40.2541955 36.5472614,40.2788842 C36.1868866,40.3035729 35.8549625,40.3159173 35.5514891,40.3159173 C34.489332,40.312119 33.6263293,40.2105155 32.9624811,40.0111068 C32.2986329,39.8116981 31.87377,39.525879 31.6878925,39.1536494 C31.528569,38.8383938 31.5361558,38.4395764 31.7106531,37.9571972 C31.7485872,37.8508459 31.7884181,37.7549398 31.8301457,37.669479 C31.8718733,37.5840181 31.9117042,37.5090024 31.9496384,37.444432 C31.9686055,37.4064494 31.9894693,37.3703659 32.0122298,37.3361816 C32.0349903,37.3019972 32.0577508,37.269712 32.0805113,37.2393259 L32.0805113,37.2393259 L31.1757811,36.5670337 C31.1681942,36.5784285 31.1473304,36.6097642 31.1131897,36.6610407 C31.0790489,36.7123172 31.0382697,36.7797363 30.9908519,36.8632981 C30.9434342,36.9468598 30.8912747,37.0456146 30.8343734,37.1595624 C30.7774722,37.2735103 30.7224676,37.3988529 30.6693597,37.5355903 C30.5214164,37.9268111 30.4474448,38.302839 30.4474448,38.6636738 C30.4474448,39.0245086 30.5271065,39.3587555 30.6864301,39.6664147 C30.9671431,40.2323555 31.4982216,40.6672564 32.2796658,40.9711173 C33.0990442,41.2749782 34.1896519,41.432606 35.5514891,41.4440008 Z M19.6646533,41.4440008 C20.5333461,41.4440008 21.2503021,41.1515347 21.8155214,40.5666025 C21.8269017,40.559006 21.8458688,40.5419138 21.8724227,40.515326 C22.274525,40.8115903 22.659557,41.0318895 23.0275186,41.1762234 C23.5623906,41.3927243 24.042258,41.4440008 24.4671208,41.330053 C24.7061062,41.2654825 24.9166409,41.1448877 25.098725,40.9682686 C25.280809,40.7916495 25.4268557,40.5666025 25.5368648,40.2931277 C25.62032,40.0690303 25.6753245,39.831639 25.7018785,39.5809538 C25.7284324,39.3302686 25.7227423,39.073886 25.6848081,38.811806 C25.6241134,38.2610581 25.4420293,37.8033677 25.1385559,37.4387346 C24.759214,36.979145 24.28314,36.7493503 23.7103339,36.7493503 C23.2247763,36.7493503 22.8112937,36.9582546 22.4698861,37.3760633 C22.3409099,37.531792 22.2271073,37.7027138 22.1284784,37.8888285 C22.0298496,38.0749433 21.9312207,38.2705538 21.8325918,38.4756599 C21.7149958,38.711152 21.5955032,38.9399973 21.4741138,39.1621955 C21.3527244,39.3843938 21.2104712,39.5819034 21.0473542,39.7547242 C20.8842372,39.9275451 20.6926696,40.0661816 20.4726514,40.1706338 C20.2526331,40.275086 19.9833004,40.3273121 19.6646533,40.3273121 L19.6646533,40.3273121 C19.5053297,40.3349086 19.3725601,40.3909329 19.2663443,40.4953851 C19.1601286,40.5998373 19.1070208,40.7299277 19.1070208,40.8856564 C19.1070208,41.0413851 19.1601286,41.1733747 19.2663443,41.2816251 C19.3725601,41.3898756 19.503433,41.4440008 19.6589631,41.4440008 L19.6589631,41.4440008 L19.6646533,41.4440008 Z M24.1826144,40.2361538 C23.9929435,40.2893295 23.7558549,40.2589434 23.4713485,40.1449955 C23.1868421,40.0310477 22.8719884,39.8468321 22.5267874,39.5923486 L22.5267874,39.5923486 L22.8340542,38.9713329 C22.9288897,38.7852181 23.0132933,38.623792 23.0872649,38.4870546 C23.1612366,38.3503172 23.2314148,38.2363694 23.2977996,38.1452112 C23.3641845,38.0540529 23.4305693,37.9866338 23.4969541,37.9429538 C23.5633389,37.8992738 23.6344655,37.8774338 23.7103339,37.8774338 C23.8241364,37.8774338 23.924662,37.9002233 24.0119106,37.9458025 C24.0991592,37.9913816 24.1750276,38.0493051 24.2395157,38.1195729 C24.3040038,38.1898407 24.3590084,38.2677051 24.4045294,38.3531659 C24.4500504,38.4386268 24.4870363,38.521239 24.5154869,38.6010025 C24.5439375,38.6807659 24.5657497,38.7529329 24.5809234,38.8175033 C24.596097,38.8820738 24.6055806,38.9276529 24.609374,38.9542407 C24.6321345,39.1251625 24.6349796,39.2846894 24.6179092,39.4328216 C24.6008388,39.5809538 24.5704915,39.7119938 24.5268672,39.8259416 C24.4832428,39.9398895 24.4310833,40.0329468 24.3703887,40.1051138 C24.309694,40.1772808 24.2471026,40.2209608 24.1826144,40.2361538 Z M16.5635338,41.4440008 C16.6583693,41.4440008 16.7598432,41.4402025 16.8679556,41.432606 C16.976068,41.4250095 17.0860772,41.4079173 17.197983,41.3813295 C17.3098889,41.3547417 17.4217947,41.3167591 17.5337005,41.2673817 C17.6456064,41.2180043 17.7546672,41.1496356 17.8608829,41.0622756 C17.898817,41.0318895 17.9348545,41.0005538 17.9689953,40.9682686 C18.003136,40.9359834 18.0391735,40.8989503 18.0771077,40.8571695 C18.1529761,40.936933 18.2421214,41.0128982 18.3445437,41.0850651 C18.446966,41.1572321 18.5636136,41.220853 18.6944865,41.2759277 C18.8253595,41.3310025 18.9714061,41.373733 19.1326263,41.4041191 C19.2938466,41.4345051 19.4692922,41.4477991 19.6589631,41.4440008 C19.8182867,41.4440008 19.9529531,41.3908251 20.0629622,41.2844738 C20.1729713,41.1781225 20.2279759,41.0451834 20.2279759,40.8856564 C20.2279759,40.8096912 20.2128022,40.7375243 20.1824549,40.6691556 C20.1521075,40.6007869 20.1113283,40.5409643 20.0601171,40.4896877 C20.008906,40.4384112 19.9491596,40.3985295 19.8808781,40.3700425 C19.8125966,40.3415556 19.7386249,40.3273121 19.6589631,40.3273121 C19.4010107,40.3273121 19.206598,40.2893295 19.0757251,40.2133642 C18.9448521,40.137399 18.8433782,40.0405434 18.7713033,39.9227973 C18.6954349,39.8012529 18.6470688,39.6768599 18.626205,39.5496181 C18.6053412,39.4223764 18.5949093,39.3150755 18.5949093,39.2277155 C18.5949093,39.1897329 18.596806,39.0881294 18.6005994,38.9229051 C18.6043928,38.7576807 18.6081863,38.5478268 18.6119797,38.2933433 C18.6157731,38.0388598 18.6195665,37.7492424 18.6233599,37.4244911 C18.6271534,37.0997398 18.6299984,36.760745 18.6318951,36.4075068 C18.6337918,36.0542685 18.6337918,35.6962824 18.6318951,35.3335485 C18.6299984,34.9708146 18.6243083,34.6232737 18.6148247,34.2909258 C18.6053412,33.958578 18.5930126,33.6499693 18.5778389,33.3650997 C18.5626652,33.0802302 18.5418014,32.8409397 18.5152475,32.6472284 L18.5152475,32.6472284 L17.4056727,32.7896632 C17.4284332,32.975778 17.4455036,33.209371 17.4568838,33.4904424 C17.4682641,33.7715137 17.4777476,34.0791728 17.4853345,34.4134198 C17.4929213,34.7476667 17.4976631,35.0971067 17.4995598,35.4617398 C17.5014565,35.8263728 17.5014565,36.1843589 17.4995598,36.5356981 C17.4976631,36.8870372 17.494818,37.2231833 17.4910246,37.5441364 C17.4872312,37.8650894 17.4834377,38.1471103 17.4796443,38.390199 C17.4758509,38.6332877 17.4720575,38.8279486 17.4682641,38.9741816 C17.4644707,39.1204147 17.4625739,39.1973294 17.4625739,39.204926 C17.4549871,39.3036807 17.4464519,39.401486 17.4369684,39.4983416 C17.4274848,39.5951973 17.4113628,39.6873051 17.3886023,39.7746651 C17.3658418,39.8620251 17.3364428,39.940839 17.3004053,40.0111068 C17.2643678,40.0813747 17.2178985,40.137399 17.1609972,40.1791799 C17.1306498,40.2019695 17.0974574,40.2219103 17.06142,40.2390025 C17.0253825,40.2560947 16.9789131,40.2703382 16.9220118,40.2817329 C16.8651106,40.2931277 16.7977774,40.3026234 16.7200123,40.3102199 C16.6422472,40.3178164 16.5464634,40.3235138 16.4326609,40.3273121 L16.4326609,40.3273121 L15.8920988,40.3273121 C15.7365686,40.3273121 15.6047473,40.3814373 15.4966349,40.4896877 C15.3885225,40.5979382 15.3344663,40.7299277 15.3344663,40.8856564 C15.3344663,41.0451834 15.3885225,41.1781225 15.4966349,41.2844738 C15.6047473,41.3908251 15.7365686,41.4440008 15.8920988,41.4440008 L15.8920988,41.4440008 L16.5635338,41.4440008 Z M10.947378,41.4440008 C11.1029082,41.4364043 11.2584383,41.4212112 11.4139685,41.3984217 C11.5694986,41.3756321 11.7221837,41.3414477 11.8720237,41.2958686 C12.0218638,41.2502895 12.1660136,41.1895173 12.3044734,41.1135521 C12.4429332,41.0375869 12.5747545,40.9445295 12.6999373,40.8343799 C12.8934016,40.6520634 13.0565186,40.4393608 13.1892882,40.1962721 C13.3599921,40.4165712 13.5591465,40.6216773 13.7867516,40.8115903 C14.0143567,41.0015034 14.2628256,41.1458373 14.5321583,41.2445921 C14.7294161,41.3091625 14.9314156,41.3585399 15.1381569,41.3927243 C15.3448982,41.4269086 15.5848319,41.4440008 15.857958,41.4440008 L15.857958,41.4440008 L15.903479,41.4440008 C16.0628026,41.4440008 16.1955722,41.3908251 16.3017879,41.2844738 C16.4080037,41.1781225 16.4611115,41.0451834 16.4611115,40.8856564 C16.4611115,40.7299277 16.4080037,40.5979382 16.3017879,40.4896877 C16.1955722,40.3814373 16.0628026,40.3273121 15.903479,40.3273121 L15.903479,40.3273121 L15.6644937,40.3273121 C15.4520622,40.3235138 15.2576496,40.2921782 15.0812556,40.2333051 C14.9048617,40.1744321 14.7436414,40.093719 14.5975948,39.991166 C14.4515482,39.8886129 14.3159335,39.7642199 14.1907507,39.6179868 C14.0655679,39.4717538 13.9479719,39.307479 13.8379628,39.1251625 C13.6938129,38.8820738 13.5591465,38.6408842 13.4339637,38.4015938 C13.3087809,38.1623033 13.1826498,37.924912 13.0555702,37.6894198 C12.9284907,37.4539277 12.7957211,37.2184355 12.6572613,36.9829433 C12.5188015,36.7474511 12.362323,36.5119589 12.1878258,36.2764668 C12.0133286,36.0409746 11.8170192,35.806432 11.5988976,35.5728389 C11.3807761,35.3392459 11.1275654,35.1066024 10.8392656,34.8749085 L10.8392656,34.8749085 L15.3515367,32.9776771 L14.9133968,31.9407519 L9.88332419,34.111458 L9.73538088,35.3705815 C9.9060847,35.5035207 10.0919622,35.6601989 10.2930134,35.8406163 C10.4940645,36.0210337 10.6941674,36.2185433 10.8933218,36.433145 C11.0924763,36.6477468 11.2830955,36.8746929 11.4651796,37.1139833 C11.6472637,37.3532737 11.8065873,37.5944633 11.9431503,37.837552 C12.0797134,38.0806407 12.1849807,38.3208807 12.2589524,38.558272 C12.3329241,38.7956633 12.3604263,39.0226094 12.3414592,39.2391103 C12.330079,39.3758477 12.2836096,39.5097364 12.2020511,39.6407764 C12.1204926,39.7718164 12.0180703,39.8886129 11.8947842,39.991166 C11.7714981,40.093719 11.6330384,40.1753816 11.4794049,40.2361538 C11.3257715,40.296926 11.1730864,40.3273121 11.0213497,40.3273121 L11.0213497,40.3273121 L9.09239648,40.3273121 C9.01652811,40.3273121 8.94445316,40.3415556 8.87617163,40.3700425 C8.8078901,40.3985295 8.74814377,40.4384112 8.69693262,40.4896877 C8.64572147,40.5409643 8.60494222,40.6007869 8.57459488,40.6691556 C8.54424753,40.7375243 8.52907386,40.8096912 8.52907386,40.8856564 C8.52907386,41.0451834 8.58407842,41.1781225 8.69408755,41.2844738 C8.80409669,41.3908251 8.93686633,41.4440008 9.09239648,41.4440008 L9.09239648,41.4440008 L10.947378,41.4440008 Z M4.21595726,45.1587 C4.46632287,45.1587 4.74703582,45.1416078 5.05809612,45.1074235 C5.36915642,45.0732391 5.68306178,45.0162652 5.99981221,44.9365017 C6.31656264,44.8567383 6.62477788,44.7532357 6.92445792,44.6259939 C7.22413797,44.4987522 7.49157396,44.3420739 7.72676589,44.1559591 C7.96195782,43.9698443 8.15162874,43.7514443 8.29577863,43.5007591 C8.43992853,43.2500739 8.51390019,42.9633052 8.5176936,42.640453 C8.5176936,42.5606895 8.51010677,42.4733295 8.49493309,42.378373 C8.47975942,42.2834165 8.44941207,42.1846617 8.40389106,42.0821086 C8.35837004,41.9795556 8.29483028,41.8741538 8.21327179,41.7659034 C8.13171329,41.657653 8.02644593,41.5503521 7.89746971,41.4440008 L7.89746971,41.4440008 L9.25741017,41.4440008 C9.41294032,41.4440008 9.54570996,41.3908251 9.65571909,41.2844738 C9.76572822,41.1781225 9.82073279,41.0451834 9.82073279,40.8856564 C9.82073279,40.7261295 9.76572822,40.5931903 9.65571909,40.486839 C9.54570996,40.3804877 9.41294032,40.3273121 9.25741017,40.3273121 L9.25741017,40.3273121 L4.87601204,40.3216147 L4.79066013,41.4269086 L4.91584293,41.4496982 C4.97653763,41.461093 5.0543027,41.4781851 5.14913816,41.5009747 C5.24397362,41.5237643 5.34829262,41.5494025 5.46209517,41.5778895 C5.57589772,41.6063764 5.69823546,41.6405608 5.82910839,41.6804425 C5.95998132,41.7203243 6.0918026,41.7630547 6.22457225,41.8086338 C6.44079709,41.8883973 6.62288117,41.9681608 6.77082448,42.0479243 C6.91876779,42.1276878 7.03920882,42.203653 7.13214757,42.2758199 C7.22508632,42.3479869 7.2924195,42.415406 7.3341471,42.4780773 C7.3758747,42.5407486 7.3967385,42.5948739 7.3967385,42.640453 C7.3967385,42.8265678 7.3341471,42.989893 7.20896429,43.1304287 C7.08378149,43.2709643 6.92161286,43.3925087 6.7224584,43.4950617 C6.52330394,43.5976148 6.30138897,43.6840252 6.05671349,43.754293 C5.81203801,43.8245608 5.5721043,43.8805852 5.33691236,43.9223661 C5.10172043,43.9641469 4.88359888,43.9935835 4.68254771,44.0106756 C4.48149654,44.0277678 4.32596639,44.0363139 4.21595726,44.0363139 C4.02628634,44.0363139 3.80911315,44.0325156 3.56443767,44.0249191 C3.31976219,44.0173226 3.07319,43.9869365 2.8247211,43.9337608 C2.5762522,43.8805852 2.33726685,43.7941748 2.10776504,43.6745295 C1.87826323,43.5548843 1.68574726,43.383013 1.53021711,43.1589156 C1.22295022,42.6917295 1.11388945,42.0384286 1.20303478,41.199013 C1.29218011,40.3595973 1.57953154,39.3435625 2.06508909,38.1509085 L2.06508909,38.1509085 L1.02379576,37.7293016 C0.724115719,38.4547694 0.494613912,39.1251625 0.335290344,39.7404808 C0.175966775,40.355799 0.083028027,40.923639 0.0564740989,41.4440008 C0.0109530794,42.4011626 0.193037158,43.1798061 0.602726333,43.7799313 C0.777223575,44.0761956 1.00103525,44.3145365 1.27416137,44.4949539 C1.54728749,44.6753713 1.84696753,44.8149574 2.17320151,44.9137122 C2.49943548,45.012467 2.83894642,45.077987 3.19173432,45.1102722 C3.54452222,45.1425574 3.88592987,45.1587 4.21595726,45.1587 Z" id="سایتتخصصیخدماتملکی" fill-rule="nonzero"></path>
                    </g>
                    <g id="Logo/Shape" transform="translate(172.679558, 0.000000)">
                        <g id="Group-22" transform="translate(0.649171, 0.000000)">
                            <path d="M44.0078025,23.956405 C42.9061634,23.8693797 41.97267,23.7898854 41.0383409,23.7227756 C38.7531625,23.5589337 36.467817,23.5764986 34.20888,23.9689567 C33.5434839,24.0845999 33.2671966,23.8677061 32.978875,23.3423746 C32.2011589,21.9257034 31.3729656,20.5368132 30.5718494,19.132861 C30.3931736,18.8197374 30.2407392,18.5755645 29.9659562,19.0563792 C28.0170694,22.4650928 26.0646727,25.8717981 24.1154516,29.2803443 C24.1047544,29.2989209 24.1214687,29.3332289 24.1378487,29.4456924 C24.6966076,29.29708 25.2481793,29.1476308 25.8012554,29.0040391 C32.8342964,27.1786836 39.933526,26.4756197 47.13839,27.817148 C50.441469,28.4320151 53.5541721,29.5861043 56.4412323,31.3229283 C56.6030266,31.4203296 56.8077767,31.4772308 56.8941897,31.7704391 C54.8782785,31.3712942 52.8792489,31.134485 50.8574878,31.1026873 C42.6790161,30.973823 35.1335148,33.2254349 28.0478237,37.1872612 C21.5867459,40.7999821 16.0523086,45.557253 11.1327901,51.0554103 C10.6983856,51.5410783 10.2669897,51.7194802 9.63134502,51.7134432 C6.67893197,51.6840006 3.72585034,51.688854 0.773270141,51.7116144 C0.13678979,51.7166351 -0.127630356,51.6670976 0.287887016,50.9715648 C2.41712105,47.4073771 4.52362364,43.8292989 6.62745194,40.2497145 C13.3460971,28.8192777 20.0597279,17.3859957 26.7763673,5.95422 C27.8980637,4.04501907 29.02444,2.13866319 30.2399035,0.0764985754 C34.8575618,8.08567014 39.3953257,15.9562707 44.0078025,23.956405" id="Fill-4" fill="#D7181E"></path>
                            <path d="M53.8358748,34.5769042 C52.1340253,35.2197198 50.4112829,35.8128306 48.7338363,36.5147231 C42.5871543,39.0869898 36.9967241,42.500222 32.4606316,47.4755581 C31.4261839,48.610234 30.5120791,49.8354496 29.7199887,51.1502009 C29.50872,51.5009797 29.294777,51.7287517 28.8164139,51.7257688 C25.2046219,51.7023094 21.5926628,51.7130202 17.9807036,51.7130202 C17.9628193,51.6121043 17.944935,51.5111885 17.9270507,51.4102726 C27.6078032,40.9466532 39.1191053,34.361684 53.8358748,34.5769042 Z M52.6908286,38.9481844 C55.1901171,43.0316787 57.7273471,47.0922452 60.2507042,51.1611795 C60.3344428,51.296236 60.3964529,51.4446811 60.5326744,51.7131206 C57.0636225,51.7131206 53.7528549,51.708602 50.4419202,51.7193202 C50.05114,51.7206517 49.8427128,51.5389027 49.6476569,51.2311344 C47.9048574,48.4796291 46.1550379,45.7326424 44.3938526,42.992852 C44.1779039,42.6569679 44.1157267,42.4417477 44.5116884,42.1887049 C46.7191453,40.7782258 48.9717309,39.4602948 51.4228822,38.5038534 C52.0284411,38.2675463 52.3438399,38.3813486 52.6908286,38.9481844 Z" id="Combined-Shape" fill="#2F2F2F"></path>
                        </g>
                    </g>
                </g>
            </g>
        </g>
    </g>
</svg>