<?xml version="1.0" encoding="UTF-8"?>
<svg width="24px" height="24px" viewBox="0 0 24 24" version="1.1" xmlns="http://www.w3.org/2000/svg" xmlns:xlink="http://www.w3.org/1999/xlink">
    <!-- Generator: Sketch 60 (88103) - https://sketch.com -->
    <title>SVG/item-logo-whatsapp-silhouette</title>
    <desc>Created with Sketch.</desc>
    <g id="Assets" stroke="none" stroke-width="1" fill="none" fill-rule="evenodd">
        <g transform="translate(-260.000000, -378.000000)" id="WhatsApp/Silhouette">
            <g transform="translate(41.000000, 35.000000)">
                <g transform="translate(219.000000, 343.000000)">
                    <g id="WhatsApp_logo">
                        <g id="Group" transform="translate(0.160305, 0.236173)">
                            <path d="M11.6433376,0.13246604 C14.6936065,0.133780839 17.5566479,1.32091322 19.7096319,3.47567222 C21.8623859,5.63039835 23.0475789,8.49459024 23.046594,11.5406518 C23.043957,17.7628709 18.0295623,22.8378828 11.8315155,22.9387608 L11.6384672,22.9402913 C9.73003591,22.9396339 7.85480326,22.4609154 6.18928112,21.5525205 L0.143970535,23.1375112 L1.76169972,17.2304462 C0.763865583,15.5016164 0.238931921,13.5404616 0.239753671,11.5314482 C0.24218605,5.24604962 5.35728164,0.13246604 11.6433376,0.13246604 Z" id="Path" fill="#000000" fill-rule="nonzero"></path>
                            <path d="M8.7930497,6.76792992 C8.5795723,6.29341882 8.35495854,6.28391939 8.15192064,6.27557042 C7.98575301,6.26850337 7.79570862,6.26895744 7.60588445,6.26895744 C7.4158302,6.26895744 7.10714817,6.34027827 6.84612762,6.62540567 C6.58487369,6.91054621 5.84878653,7.5998035 5.84878653,9.00160976 C5.84878653,10.4035475 6.86992549,11.7581524 7.01218678,11.9484368 C7.15469789,12.138376 8.98336692,15.1071437 11.8792455,16.2491456 C14.286183,17.1982665 14.7759786,17.0094941 15.2983813,16.9619313 C15.820784,16.9145032 16.9841842,16.2729106 17.2215384,15.6075564 C17.4590208,14.9423008 17.4590208,14.3720394 17.3878211,14.2529514 C17.3166214,14.1342086 17.1265672,14.0628939 16.8416534,13.9205044 C16.5566279,13.7779933 15.1558505,13.0886308 14.8947313,12.993538 C14.6334774,12.8985667 14.443525,12.8511386 14.2534708,13.1363975 C14.0635316,13.4213047 13.5178405,14.0629038 13.3515513,14.252958 C13.1853836,14.4433607 13.0191042,14.4671323 12.7341872,14.3246179 C12.4491617,14.1816433 11.5314745,13.8810703 10.4428534,12.9105182 C9.5957939,12.1552975 9.02398764,11.2226445 8.85769839,10.9373659 C8.69153075,10.6524587 8.83995846,10.4981243 8.98281799,10.3560602 C9.11083672,10.2283899 9.26784349,10.0233831 9.41035788,9.85709385 C9.55252057,9.69069612 9.59994867,9.5719533 9.69491992,9.38189248 C9.79000621,9.19171989 9.74246306,9.02531888 9.67126339,8.88279462 C9.59994867,8.74028352 9.04624062,7.33126559 8.79287878,6.76784117" id="Path" fill="#FFFFFF"></path>
                        </g>
                    </g>
                </g>
            </g>
        </g>
    </g>
</svg>