<?xml version="1.0" encoding="UTF-8"?>
<svg width="80px" height="74px" viewBox="0 0 80 74" version="1.1" xmlns="http://www.w3.org/2000/svg" xmlns:xlink="http://www.w3.org/1999/xlink">
    <!-- Generator: Sketch 60 (88103) - https://sketch.com -->
    <title>SVG/item-check-green-success</title>
    <desc>Created with Sketch.</desc>
    <defs>
        <path d="M51.4499313,0.976310729 C52.7516789,-0.32543691 54.8622289,-0.32543691 56.1639765,0.976310729 C57.3655897,2.17792393 57.4580215,4.06869412 56.4412718,5.37633148 L56.1639765,5.69035594 L21.293225,40.5611074 C20.0916118,41.7627206 18.2008416,41.8551524 16.8932043,40.8384028 L16.5791798,40.5611074 L0.976310729,24.9582383 C-0.32543691,23.6564907 -0.32543691,21.5459407 0.976310729,20.2441931 C2.17792393,19.0425799 4.06869412,18.9501481 5.37633148,19.9668977 L5.69035594,20.2441931 L18.9333333,33.49 L51.4499313,0.976310729 Z" id="path-1"></path>
    </defs>
    <g id="Assets" stroke="none" stroke-width="1" fill="none" fill-rule="evenodd">
        <g transform="translate(-521.000000, -39.000000)" id="Icon/Check">
            <g transform="translate(41.000000, 35.000000)">
                <g transform="translate(480.000000, 4.000000)">
                    <g id="Rectangle" transform="translate(10.000000, 20.000000)">
                        <mask id="mask-2" fill="white">
                            <use xlink:href="#path-1"></use>
                        </mask>
                        <use id="Mask" fill="#979797" fill-rule="nonzero" xlink:href="#path-1"></use>
                        <rect fill="#16CB4D" mask="url(#mask-2)" x="-10" y="-20" width="80" height="80"></rect>
                    </g>
                </g>
            </g>
        </g>
    </g>
</svg>